<svg xmlns="http://www.w3.org/2000/svg" xmlns:xlink="http://www.w3.org/1999/xlink" width="500" zoomAndPan="magnify" viewBox="0 0 375 374.999991" height="500" preserveAspectRatio="xMidYMid meet" version="1.0"><defs><g/><clipPath id="67ab73455e"><path d="M 147 115 L 228 115 L 228 216 L 147 216 Z M 147 115 " clip-rule="nonzero"/></clipPath><clipPath id="e89c00a861"><path d="M 225.914062 144.875 C 224.863281 144.875 224.015625 145.726562 224.015625 146.773438 C 224.015625 166.257812 208.683594 182.222656 189.449219 183.242188 C 190.167969 169.949219 198.199219 157.890625 210.320312 152.160156 C 211.265625 151.710938 211.671875 150.578125 211.222656 149.632812 C 210.773438 148.683594 209.644531 148.277344 208.695312 148.726562 C 205.308594 150.328125 202.222656 152.386719 199.472656 154.789062 C 202.789062 141.304688 199.007812 126.65625 188.839844 116.488281 C 188.097656 115.746094 186.898438 115.746094 186.15625 116.488281 C 185.414062 117.230469 185.414062 118.433594 186.15625 119.171875 C 197.773438 130.792969 200.230469 148.875 192.128906 163.148438 C 192.066406 163.261719 192.011719 163.378906 191.972656 163.5 C 190.082031 166.460938 188.589844 169.667969 187.519531 173.03125 C 186.453125 169.671875 184.953125 166.503906 183.09375 163.589844 C 183.0625 163.523438 183.042969 163.457031 183.003906 163.394531 C 177.242188 153.421875 176.53125 141.140625 181.105469 130.542969 C 181.519531 129.582031 181.078125 128.464844 180.113281 128.050781 C 179.148438 127.632812 178.035156 128.078125 177.621094 129.039062 C 174.089844 137.214844 173.421875 146.296875 175.507812 154.785156 C 168.425781 148.621094 159.183594 144.875 149.082031 144.875 C 148.03125 144.875 147.183594 145.726562 147.183594 146.773438 C 147.183594 157.289062 151.230469 166.871094 157.847656 174.054688 C 155.023438 173.425781 152.089844 173.082031 149.082031 173.082031 C 148.03125 173.082031 147.183594 173.933594 147.183594 174.980469 C 147.183594 189.105469 154.726562 202.382812 166.871094 209.625 C 167.769531 210.160156 168.9375 209.867188 169.472656 208.96875 C 170.011719 208.070312 169.714844 206.902344 168.816406 206.367188 C 158.375 200.136719 151.6875 188.988281 151.03125 176.929688 C 170.261719 177.949219 185.597656 193.917969 185.597656 213.398438 C 185.597656 214.445312 186.449219 215.296875 187.496094 215.296875 C 209.726562 215.296875 227.8125 197.210938 227.8125 174.980469 C 227.8125 173.933594 226.960938 173.082031 225.914062 173.082031 C 222.902344 173.082031 219.972656 173.425781 217.148438 174.054688 C 223.761719 166.871094 227.8125 157.289062 227.8125 146.773438 C 227.8125 145.726562 226.960938 144.875 225.914062 144.875 Z M 185.546875 183.242188 C 166.957031 182.257812 152.011719 167.3125 151.03125 148.722656 C 169.617188 149.707031 184.566406 164.652344 185.546875 183.242188 Z M 178.730469 186.117188 C 181.554688 186.746094 184.484375 187.089844 187.496094 187.089844 C 190.507812 187.089844 193.4375 186.746094 196.261719 186.117188 C 192.328125 190.390625 189.304688 195.515625 187.496094 201.179688 C 185.691406 195.515625 182.667969 190.390625 178.730469 186.117188 Z M 189.445312 211.449219 C 190.429688 192.859375 205.375 177.914062 223.964844 176.929688 C 222.980469 195.519531 208.035156 210.464844 189.445312 211.449219 Z M 189.445312 211.449219 " clip-rule="nonzero"/></clipPath><linearGradient x1="46.925011" gradientTransform="matrix(1.265491, 0, 0, 1.265491, 123.711634, 101.829288)" y1="8.458196" x2="54.415698" gradientUnits="userSpaceOnUse" y2="92.154209" id="a6a77c648c"><stop stop-opacity="1" stop-color="rgb(1.493835%, 2.23999%, 2.23999%)" offset="0"/><stop stop-opacity="1" stop-color="rgb(1.408386%, 2.111816%, 2.111816%)" offset="0.0675903"/><stop stop-opacity="1" stop-color="rgb(1.322937%, 1.985168%, 1.985168%)" offset="0.125"/><stop stop-opacity="1" stop-color="rgb(1.237488%, 1.856995%, 1.856995%)" offset="0.25"/><stop stop-opacity="1" stop-color="rgb(1.068115%, 1.602173%, 1.602173%)" offset="0.375"/><stop stop-opacity="1" stop-color="rgb(0.897217%, 1.347351%, 1.347351%)" offset="0.5"/><stop stop-opacity="1" stop-color="rgb(0.727844%, 1.092529%, 1.092529%)" offset="0.625"/><stop stop-opacity="1" stop-color="rgb(0.556946%, 0.836182%, 0.836182%)" offset="0.75"/><stop stop-opacity="1" stop-color="rgb(0.387573%, 0.58136%, 0.58136%)" offset="0.875"/><stop stop-opacity="1" stop-color="rgb(0.216675%, 0.326538%, 0.326538%)" offset="0.93241"/><stop stop-opacity="1" stop-color="rgb(0.132751%, 0.19989%, 0.19989%)" offset="1"/></linearGradient><clipPath id="45137673eb"><path d="M 123.710938 101.828125 L 251.210938 101.828125 L 251.210938 229.328125 L 123.710938 229.328125 Z M 123.710938 101.828125 " clip-rule="nonzero"/></clipPath><clipPath id="3802f66f4b"><path d="M 187.496094 101.828125 C 152.324219 101.828125 123.710938 130.441406 123.710938 165.613281 C 123.710938 200.785156 152.324219 229.398438 187.496094 229.398438 C 222.667969 229.398438 251.28125 200.785156 251.28125 165.613281 C 251.28125 130.441406 222.667969 101.828125 187.496094 101.828125 Z M 187.496094 225.601562 C 154.417969 225.601562 127.507812 198.691406 127.507812 165.613281 C 127.507812 132.535156 154.417969 105.625 187.496094 105.625 C 220.574219 105.625 247.484375 132.535156 247.484375 165.613281 C 247.484375 198.691406 220.574219 225.601562 187.496094 225.601562 Z M 187.496094 225.601562 " clip-rule="nonzero"/></clipPath><linearGradient x1="45.528288" gradientTransform="matrix(1.265491, 0, 0, 1.265491, 123.711634, 101.829288)" y1="-4.074254" x2="55.273185" gradientUnits="userSpaceOnUse" y2="104.821219" id="ffbdd029af"><stop stop-opacity="1" stop-color="rgb(1.599121%, 2.398682%, 2.398682%)" offset="0"/><stop stop-opacity="1" stop-color="rgb(1.53656%, 2.305603%, 2.305603%)" offset="0.0821381"/><stop stop-opacity="1" stop-color="rgb(1.475525%, 2.21405%, 2.21405%)" offset="0.125"/><stop stop-opacity="1" stop-color="rgb(1.364136%, 2.047729%, 2.047729%)" offset="0.25"/><stop stop-opacity="1" stop-color="rgb(1.142883%, 1.716614%, 1.716614%)" offset="0.375"/><stop stop-opacity="1" stop-color="rgb(0.921631%, 1.383972%, 1.383972%)" offset="0.5"/><stop stop-opacity="1" stop-color="rgb(0.700378%, 1.052856%, 1.052856%)" offset="0.625"/><stop stop-opacity="1" stop-color="rgb(0.479126%, 0.720215%, 0.720215%)" offset="0.75"/><stop stop-opacity="1" stop-color="rgb(0.257874%, 0.389099%, 0.389099%)" offset="0.875"/><stop stop-opacity="1" stop-color="rgb(0.0732422%, 0.111389%, 0.111389%)" offset="0.917862"/><stop stop-opacity="1" stop-color="rgb(0%, 0%, 0%)" offset="1"/></linearGradient></defs><g clip-path="url(#67ab73455e)"><g clip-path="url(#e89c00a861)"><path fill="url(#a6a77c648c)" d="M 147.183594 115.746094 L 147.183594 215.296875 L 227.8125 215.296875 L 227.8125 115.746094 Z M 147.183594 115.746094 " fill-rule="nonzero"/></g></g><g clip-path="url(#45137673eb)"><g clip-path="url(#3802f66f4b)"><path fill="url(#ffbdd029af)" d="M 123.710938 101.828125 L 123.710938 229.328125 L 251.210938 229.328125 L 251.210938 101.828125 Z M 123.710938 101.828125 " fill-rule="nonzero"/></g></g><g fill="#000000" fill-opacity="1"><g transform="translate(136.258379, 256.920082)"><g><path d="M 6.136719 0 L 10.921875 0 L 15.222656 -12.539062 L 15.414062 -12.539062 L 19.714844 0 L 24.523438 0 C 24.667969 -1.230469 25.078125 -2.949219 25.585938 -4.398438 L 28.65625 -12.855469 C 29.210938 -14.496094 29.839844 -15.96875 30.371094 -16.914062 L 25.636719 -16.914062 C 25.585938 -16.234375 25.441406 -15.4375 25.054688 -14.160156 L 22.277344 -6.597656 C 21.960938 -5.703125 21.722656 -4.929688 21.453125 -4.035156 L 21.261719 -4.035156 L 16.816406 -16.914062 L 13.820312 -16.914062 L 9.351562 -4.035156 L 9.15625 -4.035156 C 8.890625 -4.929688 8.648438 -5.703125 8.335938 -6.597656 L 5.582031 -14.160156 C 5.171875 -15.414062 5.050781 -16.234375 5 -16.914062 L 0.242188 -16.914062 C 0.796875 -15.96875 1.425781 -14.496094 1.980469 -12.855469 L 5.050781 -4.375 C 5.53125 -2.921875 5.992188 -1.230469 6.136719 0 Z M 6.136719 0 "/></g></g></g><g fill="#000000" fill-opacity="1"><g transform="translate(166.855487, 256.920082)"><g><path d="M 1.957031 0 L 6.597656 0 C 6.28125 -1.015625 6.160156 -2.320312 6.160156 -3.914062 L 6.160156 -6.910156 L 16.71875 -6.910156 L 16.71875 -3.914062 C 16.71875 -2.269531 16.527344 -0.941406 16.285156 0 L 20.921875 0 C 20.632812 -0.941406 20.488281 -2.417969 20.488281 -4.058594 L 20.488281 -12.855469 C 20.488281 -14.496094 20.65625 -15.96875 20.921875 -16.914062 L 16.285156 -16.914062 C 16.550781 -15.96875 16.71875 -14.640625 16.71875 -13 L 16.71875 -10.050781 L 6.160156 -10.050781 L 6.160156 -13 C 6.160156 -14.617188 6.332031 -15.921875 6.597656 -16.914062 L 1.957031 -16.914062 C 2.222656 -15.96875 2.417969 -14.496094 2.417969 -12.855469 L 2.417969 -4.058594 C 2.417969 -2.417969 2.246094 -0.941406 1.957031 0 Z M 1.957031 0 "/></g></g></g><g fill="#000000" fill-opacity="1"><g transform="translate(189.724831, 256.920082)"><g><path d="M 1.957031 0 L 6.597656 0 C 6.332031 -0.941406 6.160156 -2.417969 6.160156 -4.058594 L 6.160156 -12.855469 C 6.160156 -14.496094 6.332031 -15.96875 6.597656 -16.914062 L 1.957031 -16.914062 C 2.222656 -15.96875 2.390625 -14.496094 2.390625 -12.855469 L 2.390625 -4.058594 C 2.390625 -2.417969 2.246094 -0.941406 1.957031 0 Z M 1.957031 0 "/></g></g></g><g fill="#000000" fill-opacity="1"><g transform="translate(198.297823, 256.920082)"><g><path d="M 7.5625 0 L 12.203125 0 C 11.910156 -0.964844 11.765625 -2.417969 11.765625 -4.058594 L 11.765625 -13.625 L 15.945312 -13.625 C 17.515625 -13.625 18.433594 -13.480469 19.230469 -13.214844 L 18.484375 -16.914062 L 1.257812 -16.914062 L 0.507812 -13.214844 C 1.328125 -13.507812 2.222656 -13.625 3.792969 -13.625 L 7.996094 -13.625 L 7.996094 -4.058594 C 7.996094 -2.417969 7.828125 -0.964844 7.5625 0 Z M 7.5625 0 "/></g></g></g><g fill="#000000" fill-opacity="1"><g transform="translate(218.003617, 256.920082)"><g><path d="M 1.957031 0 L 18.992188 0 L 19.691406 -3.839844 C 18.992188 -3.453125 17.902344 -3.214844 15.996094 -3.214844 L 6.160156 -3.214844 L 6.160156 -6.910156 L 13.941406 -6.910156 C 15.101562 -6.910156 15.898438 -6.863281 16.476562 -6.765625 L 16.476562 -10.195312 C 15.898438 -10.097656 15.101562 -10.050781 13.941406 -10.050781 L 6.160156 -10.050781 L 6.160156 -13.699219 L 15.824219 -13.699219 C 17.492188 -13.699219 18.554688 -13.53125 19.113281 -13.265625 L 18.507812 -16.914062 L 1.957031 -16.914062 C 2.222656 -15.96875 2.417969 -14.496094 2.417969 -12.855469 L 2.417969 -4.058594 C 2.417969 -2.417969 2.246094 -0.941406 1.957031 0 Z M 1.957031 0 "/></g></g></g><g fill="#000000" fill-opacity="1"><g transform="translate(132.709928, 290.038954)"><g><path d="M 10.484375 0.339844 C 15.996094 0.339844 19.496094 -1.617188 19.496094 -4.855469 C 19.496094 -11.765625 5.121094 -8.554688 5.121094 -12.226562 C 5.121094 -13.675781 7.539062 -14.0625 10.269531 -14.0625 C 13.121094 -14.0625 16.019531 -13.359375 17.808594 -12.320312 L 17.808594 -15.898438 C 15.898438 -16.695312 12.878906 -17.25 10.125 -17.25 C 5.21875 -17.25 1.230469 -15.535156 1.230469 -12.273438 C 1.230469 -5.292969 15.582031 -8.359375 15.582031 -4.832031 C 15.582031 -3.335938 13.480469 -2.828125 10.414062 -2.828125 C 6.933594 -2.828125 3.601562 -3.601562 1.0625 -5.21875 L 0.894531 -1.378906 C 3.527344 -0.339844 7.5625 0.339844 10.484375 0.339844 Z M 10.484375 0.339844 "/></g></g></g><g fill="#000000" fill-opacity="1"><g transform="translate(153.140207, 290.038954)"><g><path d="M -0.289062 0 L 4.445312 0 C 4.542969 -0.628906 4.953125 -1.425781 5.53125 -2.65625 L 6.234375 -3.960938 L 15.824219 -3.960938 L 16.527344 -2.683594 C 17.226562 -1.425781 17.515625 -0.652344 17.613281 0 L 22.347656 0 C 21.695312 -0.941406 20.753906 -2.488281 19.957031 -4.058594 L 15.316406 -12.878906 C 14.664062 -14.207031 14.230469 -15.824219 14.011719 -16.914062 L 8.09375 -16.914062 C 7.925781 -15.96875 7.515625 -14.449219 6.714844 -12.855469 L 2.125 -4.058594 C 1.304688 -2.511719 0.363281 -0.941406 -0.289062 0 Z M 7.636719 -6.835938 L 9.859375 -11.136719 C 10.292969 -12.082031 10.582031 -12.855469 10.921875 -13.820312 L 11.136719 -13.820312 C 11.453125 -12.878906 11.765625 -12.054688 12.175781 -11.164062 L 14.425781 -6.835938 Z M 7.636719 -6.835938 "/></g></g></g><g fill="#000000" fill-opacity="1"><g transform="translate(175.188484, 290.038954)"><g><path d="M 1.957031 0 L 6.597656 0 C 6.378906 -0.84375 6.160156 -2.632812 6.160156 -4.324219 L 6.160156 -12.25 L 6.449219 -12.25 L 18.191406 0 L 21.648438 0 L 21.648438 -12.855469 C 21.648438 -14.496094 21.816406 -15.96875 22.082031 -16.914062 L 17.445312 -16.914062 C 17.660156 -16.140625 17.878906 -14.59375 17.878906 -12.925781 L 17.878906 -5.050781 L 17.566406 -5.050781 L 6.332031 -16.914062 L 1.957031 -16.914062 C 2.246094 -15.96875 2.417969 -14.496094 2.417969 -12.855469 L 2.417969 -4.058594 C 2.417969 -2.417969 2.222656 -0.941406 1.957031 0 Z M 1.957031 0 "/></g></g></g><g fill="#000000" fill-opacity="1"><g transform="translate(199.217002, 290.038954)"><g><path d="M 1.957031 0 L 11.71875 0 C 17.660156 0 21.550781 -3.1875 21.550781 -8.457031 C 21.550781 -13.722656 17.660156 -16.914062 11.71875 -16.914062 L 1.957031 -16.914062 C 2.222656 -15.96875 2.417969 -14.496094 2.417969 -12.855469 L 2.417969 -4.058594 C 2.417969 -2.417969 2.246094 -0.941406 1.957031 0 Z M 6.160156 -3.308594 L 6.160156 -13.625 L 11.453125 -13.625 C 15.101562 -13.625 17.6875 -11.695312 17.6875 -8.457031 C 17.6875 -5.21875 15.101562 -3.308594 11.453125 -3.308594 Z M 6.160156 -3.308594 "/></g></g></g><g fill="#000000" fill-opacity="1"><g transform="translate(221.844859, 290.038954)"><g><path d="M 10.484375 0.339844 C 15.996094 0.339844 19.496094 -1.617188 19.496094 -4.855469 C 19.496094 -11.765625 5.121094 -8.554688 5.121094 -12.226562 C 5.121094 -13.675781 7.539062 -14.0625 10.269531 -14.0625 C 13.121094 -14.0625 16.019531 -13.359375 17.808594 -12.320312 L 17.808594 -15.898438 C 15.898438 -16.695312 12.878906 -17.25 10.125 -17.25 C 5.21875 -17.25 1.230469 -15.535156 1.230469 -12.273438 C 1.230469 -5.292969 15.582031 -8.359375 15.582031 -4.832031 C 15.582031 -3.335938 13.480469 -2.828125 10.414062 -2.828125 C 6.933594 -2.828125 3.601562 -3.601562 1.0625 -5.21875 L 0.894531 -1.378906 C 3.527344 -0.339844 7.5625 0.339844 10.484375 0.339844 Z M 10.484375 0.339844 "/></g></g></g></svg>