<svg xmlns="http://www.w3.org/2000/svg" xmlns:xlink="http://www.w3.org/1999/xlink" width="500" zoomAndPan="magnify" viewBox="0 0 375 374.999991" height="500" preserveAspectRatio="xMidYMid meet" version="1.0"><defs><g/><clipPath id="a633ff1254"><path d="M 112.5 136.363281 L 262.5 136.363281 L 262.5 238.363281 L 112.5 238.363281 Z M 112.5 136.363281 " clip-rule="nonzero"/></clipPath><clipPath id="75bda27993"><path d="M 7.6875 7.6875 L 366.457031 7.6875 L 366.457031 366.457031 L 7.6875 366.457031 Z M 7.6875 7.6875 " clip-rule="nonzero"/></clipPath><clipPath id="79ad01f0fd"><path d="M 187.074219 7.6875 C 88 7.6875 7.6875 88 7.6875 187.074219 C 7.6875 286.144531 88 366.457031 187.074219 366.457031 C 286.144531 366.457031 366.457031 286.144531 366.457031 187.074219 C 366.457031 88 286.144531 7.6875 187.074219 7.6875 Z M 187.074219 7.6875 " clip-rule="nonzero"/></clipPath><clipPath id="c071812128"><path d="M 7.6875 7.6875 L 366.1875 7.6875 L 366.1875 366.1875 L 7.6875 366.1875 Z M 7.6875 7.6875 " clip-rule="nonzero"/></clipPath><clipPath id="0c4e43f483"><path d="M 187.074219 7.6875 C 88 7.6875 7.6875 88 7.6875 187.074219 C 7.6875 286.144531 88 366.457031 187.074219 366.457031 C 286.144531 366.457031 366.457031 286.144531 366.457031 187.074219 C 366.457031 88 286.144531 7.6875 187.074219 7.6875 Z M 187.074219 7.6875 " clip-rule="nonzero"/></clipPath><clipPath id="b01710eeaf"><path d="M 74.296875 84.269531 L 300.796875 84.269531 L 300.796875 238.769531 L 74.296875 238.769531 Z M 74.296875 84.269531 " clip-rule="nonzero"/></clipPath></defs><g clip-path="url(#a633ff1254)"><path fill="#000000" d="M 153.410156 190.761719 C 164.695312 190.761719 173.863281 181.617188 173.863281 170.363281 C 173.863281 159.109375 164.695312 149.964844 153.410156 149.964844 C 142.125 149.964844 132.957031 159.109375 132.957031 170.363281 C 132.957031 181.617188 142.125 190.761719 153.410156 190.761719 Z M 235.226562 149.964844 L 180.683594 149.964844 L 180.683594 197.5625 L 126.136719 197.5625 L 126.136719 136.363281 L 112.503906 136.363281 L 112.503906 238.363281 L 126.136719 238.363281 L 126.136719 217.964844 L 248.863281 217.964844 L 248.863281 238.363281 L 262.496094 238.363281 L 262.496094 177.164062 C 262.496094 162.136719 250.292969 149.964844 235.226562 149.964844 Z M 235.226562 149.964844 " fill-opacity="1" fill-rule="nonzero"/></g><g clip-path="url(#75bda27993)"><g clip-path="url(#79ad01f0fd)"><path fill="#000000" d="M 7.6875 7.6875 L 366.457031 7.6875 L 366.457031 366.457031 L 7.6875 366.457031 Z M 7.6875 7.6875 " fill-opacity="1" fill-rule="nonzero"/></g></g><g clip-path="url(#c071812128)"><g clip-path="url(#0c4e43f483)"><path stroke-linecap="butt" transform="matrix(0.75, 0, 0, 0.75, 7.687931, 7.687926)" fill="none" stroke-linejoin="miter" d="M 239.181733 -0.000568287 C 107.082766 -0.000568287 -0.000574287 107.082772 -0.000574287 239.181739 C -0.000574287 371.275498 107.082766 478.358838 239.181733 478.358838 C 371.275492 478.358838 478.358832 371.275498 478.358832 239.181739 C 478.358832 107.082772 371.275492 -0.000568287 239.181733 -0.000568287 Z M 239.181733 -0.000568287 " stroke="#000000" stroke-width="28" stroke-opacity="1" stroke-miterlimit="4"/></g></g><g clip-path="url(#b01710eeaf)"><path fill="#ffffff" d="M 136.042969 166.59375 C 153.070312 166.59375 166.914062 152.753906 166.914062 135.722656 C 166.914062 118.691406 153.070312 104.851562 136.042969 104.851562 C 119.011719 104.851562 105.167969 118.691406 105.167969 135.722656 C 105.167969 152.753906 119.011719 166.59375 136.042969 166.59375 Z M 259.527344 104.851562 L 177.203125 104.851562 L 177.203125 176.882812 L 94.878906 176.882812 L 94.878906 84.269531 L 74.296875 84.269531 L 74.296875 238.628906 L 94.878906 238.628906 L 94.878906 207.757812 L 280.109375 207.757812 L 280.109375 238.628906 L 300.691406 238.628906 L 300.691406 146.011719 C 300.691406 123.269531 282.269531 104.851562 259.527344 104.851562 Z M 259.527344 104.851562 " fill-opacity="1" fill-rule="nonzero"/></g><g fill="#ffffff" fill-opacity="1"><g transform="translate(113.414059, 278.766397)"><g><path d="M 2.171875 -21.703125 L 3.46875 -21.703125 L 3.46875 -11.90625 L 15.46875 -11.90625 L 15.46875 -21.703125 L 16.765625 -21.703125 L 16.765625 0 L 15.46875 0 L 15.46875 -10.78125 L 3.46875 -10.78125 L 3.46875 0 L 2.171875 0 Z M 2.171875 -21.703125 "/></g></g></g><g fill="#ffffff" fill-opacity="1"><g transform="translate(132.352702, 278.766397)"><g><path d="M 16.0625 -7.34375 C 16.0625 -6.3125 15.875 -5.328125 15.5 -4.390625 C 15.125 -3.460938 14.597656 -2.65625 13.921875 -1.96875 C 13.253906 -1.28125 12.46875 -0.726562 11.5625 -0.3125 C 10.65625 0.101562 9.675781 0.3125 8.625 0.3125 C 7.5625 0.3125 6.578125 0.101562 5.671875 -0.3125 C 4.765625 -0.726562 3.976562 -1.28125 3.3125 -1.96875 C 2.65625 -2.65625 2.132812 -3.460938 1.75 -4.390625 C 1.363281 -5.328125 1.171875 -6.3125 1.171875 -7.34375 C 1.171875 -8.375 1.363281 -9.351562 1.75 -10.28125 C 2.132812 -11.21875 2.65625 -12.03125 3.3125 -12.71875 C 3.976562 -13.414062 4.765625 -13.96875 5.671875 -14.375 C 6.578125 -14.789062 7.5625 -15 8.625 -15 C 9.675781 -15 10.65625 -14.789062 11.5625 -14.375 C 12.46875 -13.96875 13.25 -13.410156 13.90625 -12.703125 C 14.570312 -12.003906 15.097656 -11.1875 15.484375 -10.25 C 15.867188 -9.320312 16.0625 -8.351562 16.0625 -7.34375 Z M 8.625 -0.8125 C 9.488281 -0.8125 10.296875 -0.976562 11.046875 -1.3125 C 11.804688 -1.65625 12.460938 -2.125 13.015625 -2.71875 C 13.578125 -3.320312 14.015625 -4.015625 14.328125 -4.796875 C 14.648438 -5.585938 14.8125 -6.4375 14.8125 -7.34375 C 14.8125 -8.238281 14.648438 -9.078125 14.328125 -9.859375 C 14.015625 -10.640625 13.578125 -11.328125 13.015625 -11.921875 C 12.460938 -12.523438 11.800781 -13.003906 11.03125 -13.359375 C 10.269531 -13.710938 9.457031 -13.890625 8.59375 -13.890625 C 7.71875 -13.890625 6.898438 -13.707031 6.140625 -13.34375 C 5.390625 -12.976562 4.734375 -12.492188 4.171875 -11.890625 C 3.617188 -11.296875 3.1875 -10.609375 2.875 -9.828125 C 2.570312 -9.046875 2.421875 -8.21875 2.421875 -7.34375 C 2.421875 -6.476562 2.570312 -5.648438 2.875 -4.859375 C 3.1875 -4.078125 3.617188 -3.378906 4.171875 -2.765625 C 4.734375 -2.160156 5.390625 -1.679688 6.140625 -1.328125 C 6.898438 -0.984375 7.726562 -0.8125 8.625 -0.8125 Z M 8.625 -0.8125 "/></g></g></g><g fill="#ffffff" fill-opacity="1"><g transform="translate(149.586553, 278.766397)"><g><path d="M 1.859375 -18.71875 L 3.03125 -18.71875 L 3.03125 -14.6875 L 8.25 -14.6875 L 8.25 -13.578125 L 3.03125 -13.578125 L 3.03125 -4 C 3.03125 -3.132812 3.289062 -2.4375 3.8125 -1.90625 C 4.332031 -1.375 4.992188 -1.109375 5.796875 -1.109375 L 8.25 -1.109375 L 8.25 0 L 6.046875 0 C 4.679688 0 3.640625 -0.375 2.921875 -1.125 C 2.210938 -1.882812 1.859375 -2.882812 1.859375 -4.125 Z M 1.859375 -18.71875 "/></g></g></g><g fill="#ffffff" fill-opacity="1"><g transform="translate(158.203485, 278.766397)"><g><path d="M 4.84375 -4.28125 L 4.09375 -5.265625 L 13.546875 -11.65625 C 13.003906 -12.332031 12.328125 -12.875 11.515625 -13.28125 C 10.703125 -13.6875 9.796875 -13.890625 8.796875 -13.890625 C 7.890625 -13.890625 7.046875 -13.71875 6.265625 -13.375 C 5.492188 -13.03125 4.820312 -12.554688 4.25 -11.953125 C 3.6875 -11.359375 3.238281 -10.660156 2.90625 -9.859375 C 2.582031 -9.054688 2.421875 -8.1875 2.421875 -7.25 C 2.421875 -6.363281 2.582031 -5.523438 2.90625 -4.734375 C 3.238281 -3.953125 3.691406 -3.269531 4.265625 -2.6875 C 4.847656 -2.113281 5.523438 -1.65625 6.296875 -1.3125 C 7.078125 -0.976562 7.910156 -0.8125 8.796875 -0.8125 C 9.671875 -0.8125 10.488281 -0.972656 11.25 -1.296875 C 12.019531 -1.628906 12.695312 -2.070312 13.28125 -2.625 C 13.875 -3.1875 14.335938 -3.84375 14.671875 -4.59375 C 15.015625 -5.351562 15.207031 -6.164062 15.25 -7.03125 L 16.484375 -7.03125 C 16.453125 -5.976562 16.226562 -5.003906 15.8125 -4.109375 C 15.394531 -3.210938 14.84375 -2.4375 14.15625 -1.78125 C 13.476562 -1.132812 12.703125 -0.625 11.828125 -0.25 C 10.953125 0.125 10.023438 0.3125 9.046875 0.3125 C 7.890625 0.3125 6.832031 0.113281 5.875 -0.28125 C 4.914062 -0.675781 4.082031 -1.210938 3.375 -1.890625 C 2.675781 -2.566406 2.132812 -3.367188 1.75 -4.296875 C 1.363281 -5.234375 1.171875 -6.238281 1.171875 -7.3125 C 1.171875 -8.363281 1.363281 -9.359375 1.75 -10.296875 C 2.132812 -11.242188 2.664062 -12.0625 3.34375 -12.75 C 4.03125 -13.445312 4.835938 -13.992188 5.765625 -14.390625 C 6.691406 -14.796875 7.703125 -15 8.796875 -15 C 10.222656 -15 11.503906 -14.664062 12.640625 -14 C 13.785156 -13.34375 14.6875 -12.476562 15.34375 -11.40625 Z M 4.84375 -4.28125 "/></g></g></g><g fill="#ffffff" fill-opacity="1"><g transform="translate(175.437336, 278.766397)"><g><path d="M 2.859375 -21.703125 L 4.03125 -21.703125 L 4.03125 0 L 2.859375 0 Z M 2.859375 -21.703125 "/></g></g></g><g fill="#ffffff" fill-opacity="1"><g transform="translate(182.318485, 278.766397)"><g/></g></g><g fill="#ffffff" fill-opacity="1"><g transform="translate(190.935416, 278.766397)"><g><path d="M 1.984375 -21.703125 L 3.28125 -21.703125 L 3.28125 -6.578125 C 3.28125 -5.742188 3.421875 -4.972656 3.703125 -4.265625 C 3.984375 -3.566406 4.382812 -2.957031 4.90625 -2.4375 C 5.4375 -1.925781 6.082031 -1.523438 6.84375 -1.234375 C 7.613281 -0.953125 8.484375 -0.8125 9.453125 -0.8125 C 10.398438 -0.8125 11.253906 -0.953125 12.015625 -1.234375 C 12.785156 -1.523438 13.4375 -1.921875 13.96875 -2.421875 C 14.507812 -2.929688 14.921875 -3.535156 15.203125 -4.234375 C 15.484375 -4.941406 15.625 -5.722656 15.625 -6.578125 L 15.625 -21.703125 L 16.921875 -21.703125 L 16.921875 -6.96875 C 16.921875 -5.8125 16.742188 -4.785156 16.390625 -3.890625 C 16.046875 -2.992188 15.546875 -2.222656 14.890625 -1.578125 C 14.242188 -0.941406 13.457031 -0.457031 12.53125 -0.125 C 11.613281 0.207031 10.585938 0.375 9.453125 0.375 C 8.316406 0.375 7.285156 0.203125 6.359375 -0.140625 C 5.441406 -0.484375 4.65625 -0.972656 4 -1.609375 C 3.351562 -2.253906 2.851562 -3.03125 2.5 -3.9375 C 2.15625 -4.84375 1.984375 -5.863281 1.984375 -7 Z M 1.984375 -21.703125 "/></g></g></g><g fill="#ffffff" fill-opacity="1"><g transform="translate(209.874059, 278.766397)"><g><path d="M 1.984375 -21.703125 L 3.28125 -21.703125 L 3.28125 -11.90625 L 6.90625 -11.90625 C 7.613281 -11.90625 8.226562 -11.976562 8.75 -12.125 C 9.28125 -12.269531 9.765625 -12.523438 10.203125 -12.890625 C 10.648438 -13.265625 11.078125 -13.773438 11.484375 -14.421875 C 11.890625 -15.078125 12.316406 -15.921875 12.765625 -16.953125 L 14.84375 -21.703125 L 16.3125 -21.703125 L 13.296875 -15.15625 C 12.984375 -14.5 12.691406 -13.957031 12.421875 -13.53125 C 12.160156 -13.101562 11.898438 -12.765625 11.640625 -12.515625 C 11.378906 -12.273438 11.125 -12.097656 10.875 -11.984375 C 10.632812 -11.867188 10.390625 -11.78125 10.140625 -11.71875 L 10.140625 -11.65625 C 12.035156 -11.46875 13.460938 -10.753906 14.421875 -9.515625 C 15.390625 -8.273438 15.875 -6.707031 15.875 -4.8125 L 15.875 0 L 14.5625 0 L 14.5625 -4.78125 C 14.5625 -6.757812 14.054688 -8.253906 13.046875 -9.265625 C 12.035156 -10.273438 10.46875 -10.78125 8.34375 -10.78125 L 3.28125 -10.78125 L 3.28125 0 L 1.984375 0 Z M 1.984375 -21.703125 "/></g></g></g><g fill="#ffffff" fill-opacity="1"><g transform="translate(227.107911, 278.766397)"><g><path d="M 15.75 -7.3125 C 15.75 -6.15625 15.585938 -5.109375 15.265625 -4.171875 C 14.941406 -3.234375 14.472656 -2.425781 13.859375 -1.75 C 13.253906 -1.082031 12.507812 -0.5625 11.625 -0.1875 C 10.738281 0.1875 9.738281 0.375 8.625 0.375 C 7.457031 0.375 6.4375 0.1875 5.5625 -0.1875 C 4.6875 -0.5625 3.941406 -1.085938 3.328125 -1.765625 C 2.722656 -2.453125 2.265625 -3.265625 1.953125 -4.203125 C 1.640625 -5.140625 1.484375 -6.164062 1.484375 -7.28125 L 1.484375 -14.453125 C 1.484375 -15.585938 1.644531 -16.617188 1.96875 -17.546875 C 2.289062 -18.472656 2.757812 -19.269531 3.375 -19.9375 C 4 -20.613281 4.75 -21.140625 5.625 -21.515625 C 6.5 -21.890625 7.5 -22.078125 8.625 -22.078125 C 9.757812 -22.078125 10.769531 -21.882812 11.65625 -21.5 C 12.539062 -21.113281 13.28125 -20.578125 13.875 -19.890625 C 14.476562 -19.210938 14.941406 -18.40625 15.265625 -17.46875 C 15.585938 -16.53125 15.75 -15.503906 15.75 -14.390625 Z M 2.859375 -6.9375 C 2.859375 -6.070312 2.984375 -5.265625 3.234375 -4.515625 C 3.492188 -3.773438 3.867188 -3.128906 4.359375 -2.578125 C 4.859375 -2.035156 5.460938 -1.613281 6.171875 -1.3125 C 6.890625 -1.019531 7.707031 -0.875 8.625 -0.875 C 9.53125 -0.875 10.335938 -1.019531 11.046875 -1.3125 C 11.765625 -1.613281 12.367188 -2.035156 12.859375 -2.578125 C 13.359375 -3.128906 13.738281 -3.773438 14 -4.515625 C 14.257812 -5.265625 14.390625 -6.070312 14.390625 -6.9375 L 14.390625 -14.75 C 14.390625 -15.582031 14.265625 -16.367188 14.015625 -17.109375 C 13.765625 -17.859375 13.394531 -18.503906 12.90625 -19.046875 C 12.425781 -19.597656 11.820312 -20.03125 11.09375 -20.34375 C 10.375 -20.664062 9.539062 -20.828125 8.59375 -20.828125 C 7.675781 -20.828125 6.863281 -20.671875 6.15625 -20.359375 C 5.457031 -20.054688 4.859375 -19.632812 4.359375 -19.09375 C 3.867188 -18.5625 3.492188 -17.925781 3.234375 -17.1875 C 2.984375 -16.457031 2.859375 -15.664062 2.859375 -14.8125 Z M 2.859375 -6.9375 "/></g></g></g><g fill="#ffffff" fill-opacity="1"><g transform="translate(244.341762, 278.766397)"><g><path d="M 14.234375 -21.703125 C 15.472656 -21.703125 16.09375 -21.238281 16.09375 -20.3125 C 16.09375 -19.914062 16.007812 -19.515625 15.84375 -19.109375 C 15.675781 -18.703125 15.5 -18.285156 15.3125 -17.859375 L 7.40625 0 L 5.984375 0 L 14.265625 -18.625 C 14.410156 -18.9375 14.539062 -19.234375 14.65625 -19.515625 C 14.78125 -19.796875 14.84375 -20 14.84375 -20.125 C 14.84375 -20.28125 14.785156 -20.394531 14.671875 -20.46875 C 14.566406 -20.539062 14.441406 -20.578125 14.296875 -20.578125 L 1.140625 -20.578125 L 1.140625 -21.703125 Z M 14.234375 -21.703125 "/></g></g></g></svg>