<svg xmlns="http://www.w3.org/2000/svg" xmlns:xlink="http://www.w3.org/1999/xlink" width="500" zoomAndPan="magnify" viewBox="0 0 375 374.999991" height="500" preserveAspectRatio="xMidYMid meet" version="1.0"><defs><g/><clipPath id="ca2d1f9cd6"><path d="M 112.5 136.363281 L 262.5 136.363281 L 262.5 238.363281 L 112.5 238.363281 Z M 112.5 136.363281 " clip-rule="nonzero"/></clipPath><clipPath id="626cffbbee"><path d="M 187.5 0 C 83.945312 0 0 83.945312 0 187.5 C 0 291.054688 83.945312 375 187.5 375 C 291.054688 375 375 291.054688 375 187.5 C 375 83.945312 291.054688 0 187.5 0 Z M 187.5 0 " clip-rule="nonzero"/></clipPath><clipPath id="5cff9a8a95"><path d="M 74.296875 89.394531 L 300.796875 89.394531 L 300.796875 243.894531 L 74.296875 243.894531 Z M 74.296875 89.394531 " clip-rule="nonzero"/></clipPath></defs><g clip-path="url(#ca2d1f9cd6)"><path fill="#000000" d="M 153.410156 190.761719 C 164.695312 190.761719 173.863281 181.617188 173.863281 170.363281 C 173.863281 159.109375 164.695312 149.964844 153.410156 149.964844 C 142.125 149.964844 132.957031 159.109375 132.957031 170.363281 C 132.957031 181.617188 142.125 190.761719 153.410156 190.761719 Z M 235.226562 149.964844 L 180.683594 149.964844 L 180.683594 197.5625 L 126.136719 197.5625 L 126.136719 136.363281 L 112.503906 136.363281 L 112.503906 238.363281 L 126.136719 238.363281 L 126.136719 217.964844 L 248.863281 217.964844 L 248.863281 238.363281 L 262.496094 238.363281 L 262.496094 177.164062 C 262.496094 162.136719 250.292969 149.964844 235.226562 149.964844 Z M 235.226562 149.964844 " fill-opacity="1" fill-rule="nonzero"/></g><g clip-path="url(#626cffbbee)"><rect x="-37.5" width="450" fill="#000000" y="-37.499999" height="449.999989" fill-opacity="1"/></g><g clip-path="url(#5cff9a8a95)"><path fill="#ffffff" d="M 136.042969 171.71875 C 153.070312 171.71875 166.914062 157.878906 166.914062 140.847656 C 166.914062 123.816406 153.070312 109.976562 136.042969 109.976562 C 119.011719 109.976562 105.167969 123.816406 105.167969 140.847656 C 105.167969 157.878906 119.011719 171.71875 136.042969 171.71875 Z M 259.527344 109.976562 L 177.203125 109.976562 L 177.203125 182.007812 L 94.878906 182.007812 L 94.878906 89.394531 L 74.296875 89.394531 L 74.296875 243.753906 L 94.878906 243.753906 L 94.878906 212.882812 L 280.109375 212.882812 L 280.109375 243.753906 L 300.691406 243.753906 L 300.691406 151.136719 C 300.691406 128.394531 282.269531 109.976562 259.527344 109.976562 Z M 259.527344 109.976562 " fill-opacity="1" fill-rule="nonzero"/></g><g fill="#ffffff" fill-opacity="1"><g transform="translate(91.801755, 288.166387)"><g><path d="M 2.9375 -29.40625 L 4.703125 -29.40625 L 4.703125 -16.125 L 20.953125 -16.125 L 20.953125 -29.40625 L 22.71875 -29.40625 L 22.71875 0 L 20.953125 0 L 20.953125 -14.609375 L 4.703125 -14.609375 L 4.703125 0 L 2.9375 0 Z M 2.9375 -29.40625 "/></g></g></g><g fill="#ffffff" fill-opacity="1"><g transform="translate(117.463756, 288.166387)"><g><path d="M 21.75 -9.953125 C 21.75 -8.554688 21.5 -7.226562 21 -5.96875 C 20.5 -4.707031 19.789062 -3.609375 18.875 -2.671875 C 17.96875 -1.734375 16.894531 -0.984375 15.65625 -0.421875 C 14.425781 0.140625 13.097656 0.421875 11.671875 0.421875 C 10.242188 0.421875 8.914062 0.140625 7.6875 -0.421875 C 6.457031 -0.984375 5.394531 -1.734375 4.5 -2.671875 C 3.601562 -3.609375 2.894531 -4.707031 2.375 -5.96875 C 1.851562 -7.226562 1.59375 -8.554688 1.59375 -9.953125 C 1.59375 -11.347656 1.851562 -12.675781 2.375 -13.9375 C 2.894531 -15.195312 3.601562 -16.296875 4.5 -17.234375 C 5.394531 -18.171875 6.457031 -18.921875 7.6875 -19.484375 C 8.914062 -20.046875 10.242188 -20.328125 11.671875 -20.328125 C 13.097656 -20.328125 14.425781 -20.046875 15.65625 -19.484375 C 16.894531 -18.921875 17.960938 -18.164062 18.859375 -17.21875 C 19.753906 -16.269531 20.457031 -15.164062 20.96875 -13.90625 C 21.488281 -12.644531 21.75 -11.328125 21.75 -9.953125 Z M 11.671875 -1.09375 C 12.847656 -1.09375 13.945312 -1.320312 14.96875 -1.78125 C 15.988281 -2.25 16.878906 -2.882812 17.640625 -3.6875 C 18.398438 -4.5 18.992188 -5.4375 19.421875 -6.5 C 19.859375 -7.570312 20.078125 -8.722656 20.078125 -9.953125 C 20.078125 -11.160156 19.859375 -12.296875 19.421875 -13.359375 C 18.992188 -14.421875 18.398438 -15.359375 17.640625 -16.171875 C 16.878906 -16.984375 15.976562 -17.625 14.9375 -18.09375 C 13.90625 -18.570312 12.804688 -18.8125 11.640625 -18.8125 C 10.460938 -18.8125 9.359375 -18.566406 8.328125 -18.078125 C 7.304688 -17.585938 6.414062 -16.9375 5.65625 -16.125 C 4.90625 -15.3125 4.320312 -14.375 3.90625 -13.3125 C 3.488281 -12.25 3.28125 -11.128906 3.28125 -9.953125 C 3.28125 -8.773438 3.488281 -7.65625 3.90625 -6.59375 C 4.320312 -5.53125 4.90625 -4.582031 5.65625 -3.75 C 6.414062 -2.925781 7.304688 -2.273438 8.328125 -1.796875 C 9.359375 -1.328125 10.472656 -1.09375 11.671875 -1.09375 Z M 11.671875 -1.09375 "/></g></g><g transform="translate(140.815754, 288.166387)"><g><path d="M 2.515625 -25.375 L 4.109375 -25.375 L 4.109375 -19.90625 L 11.171875 -19.90625 L 11.171875 -18.390625 L 4.109375 -18.390625 L 4.109375 -5.421875 C 4.109375 -4.242188 4.457031 -3.296875 5.15625 -2.578125 C 5.863281 -1.867188 6.765625 -1.515625 7.859375 -1.515625 L 11.171875 -1.515625 L 11.171875 0 L 8.1875 0 C 6.34375 0 4.9375 -0.507812 3.96875 -1.53125 C 3 -2.550781 2.515625 -3.90625 2.515625 -5.59375 Z M 2.515625 -25.375 "/></g></g></g><g fill="#ffffff" fill-opacity="1"><g transform="translate(152.49175, 288.166387)"><g><path d="M 6.546875 -5.796875 L 5.546875 -7.140625 L 18.359375 -15.796875 C 17.628906 -16.710938 16.707031 -17.441406 15.59375 -17.984375 C 14.488281 -18.535156 13.265625 -18.8125 11.921875 -18.8125 C 10.691406 -18.8125 9.550781 -18.582031 8.5 -18.125 C 7.457031 -17.664062 6.550781 -17.03125 5.78125 -16.21875 C 5.007812 -15.40625 4.398438 -14.453125 3.953125 -13.359375 C 3.503906 -12.265625 3.28125 -11.085938 3.28125 -9.828125 C 3.28125 -8.617188 3.503906 -7.484375 3.953125 -6.421875 C 4.398438 -5.359375 5.015625 -4.4375 5.796875 -3.65625 C 6.578125 -2.875 7.492188 -2.25 8.546875 -1.78125 C 9.597656 -1.320312 10.722656 -1.09375 11.921875 -1.09375 C 13.097656 -1.09375 14.203125 -1.316406 15.234375 -1.765625 C 16.273438 -2.210938 17.191406 -2.8125 17.984375 -3.5625 C 18.785156 -4.320312 19.414062 -5.210938 19.875 -6.234375 C 20.34375 -7.253906 20.601562 -8.351562 20.65625 -9.53125 L 22.34375 -9.53125 C 22.289062 -8.101562 21.984375 -6.78125 21.421875 -5.5625 C 20.859375 -4.34375 20.113281 -3.289062 19.1875 -2.40625 C 18.269531 -1.53125 17.210938 -0.835938 16.015625 -0.328125 C 14.828125 0.171875 13.578125 0.421875 12.265625 0.421875 C 10.691406 0.421875 9.253906 0.15625 7.953125 -0.375 C 6.648438 -0.90625 5.523438 -1.632812 4.578125 -2.5625 C 3.628906 -3.488281 2.894531 -4.582031 2.375 -5.84375 C 1.851562 -7.101562 1.59375 -8.457031 1.59375 -9.90625 C 1.59375 -11.332031 1.851562 -12.679688 2.375 -13.953125 C 2.894531 -15.234375 3.613281 -16.34375 4.53125 -17.28125 C 5.457031 -18.21875 6.550781 -18.957031 7.8125 -19.5 C 9.070312 -20.050781 10.441406 -20.328125 11.921875 -20.328125 C 13.859375 -20.328125 15.597656 -19.878906 17.140625 -18.984375 C 18.679688 -18.085938 19.898438 -16.910156 20.796875 -15.453125 Z M 6.546875 -5.796875 "/></g></g><g transform="translate(175.843748, 288.166387)"><g><path d="M 3.859375 -29.40625 L 5.453125 -29.40625 L 5.453125 0 L 3.859375 0 Z M 3.859375 -29.40625 "/></g></g></g><g fill="#ffffff" fill-opacity="1"><g transform="translate(185.167742, 288.166387)"><g/></g></g><g fill="#ffffff" fill-opacity="1"><g transform="translate(196.843737, 288.166387)"><g><path d="M 2.515625 -19.90625 L 4.109375 -19.90625 L 4.109375 -7.859375 C 4.109375 -6.898438 4.269531 -6.007812 4.59375 -5.1875 C 4.914062 -4.363281 5.359375 -3.648438 5.921875 -3.046875 C 6.484375 -2.441406 7.15625 -1.960938 7.9375 -1.609375 C 8.71875 -1.265625 9.570312 -1.09375 10.5 -1.09375 C 11.394531 -1.09375 12.234375 -1.257812 13.015625 -1.59375 C 13.804688 -1.925781 14.488281 -2.398438 15.0625 -3.015625 C 15.632812 -3.640625 16.082031 -4.359375 16.40625 -5.171875 C 16.726562 -5.984375 16.890625 -6.878906 16.890625 -7.859375 L 16.890625 -19.90625 L 18.484375 -19.90625 L 18.484375 -7.609375 C 18.484375 -6.484375 18.285156 -5.429688 17.890625 -4.453125 C 17.492188 -3.472656 16.9375 -2.625 16.21875 -1.90625 C 15.507812 -1.195312 14.664062 -0.628906 13.6875 -0.203125 C 12.707031 0.210938 11.644531 0.421875 10.5 0.421875 C 9.351562 0.421875 8.289062 0.210938 7.3125 -0.203125 C 6.332031 -0.628906 5.484375 -1.195312 4.765625 -1.90625 C 4.054688 -2.625 3.503906 -3.472656 3.109375 -4.453125 C 2.710938 -5.429688 2.515625 -6.484375 2.515625 -7.609375 Z M 2.515625 -19.90625 "/></g></g><g transform="translate(217.843735, 288.166387)"><g><path d="M 2.515625 -29.40625 L 4.109375 -29.40625 L 4.109375 -11.59375 L 7.515625 -11.59375 C 8.160156 -11.59375 8.769531 -11.804688 9.34375 -12.234375 C 9.914062 -12.671875 10.492188 -13.265625 11.078125 -14.015625 C 11.671875 -14.773438 12.289062 -15.660156 12.9375 -16.671875 C 13.582031 -17.679688 14.3125 -18.757812 15.125 -19.90625 L 17.046875 -19.90625 C 16.015625 -18.363281 15.179688 -17.09375 14.546875 -16.09375 C 13.921875 -15.101562 13.390625 -14.300781 12.953125 -13.6875 C 12.523438 -13.070312 12.160156 -12.601562 11.859375 -12.28125 C 11.566406 -11.957031 11.238281 -11.703125 10.875 -11.515625 L 10.875 -11.421875 C 11.769531 -11.367188 12.5625 -11.171875 13.25 -10.828125 C 13.9375 -10.492188 14.507812 -10.0625 14.96875 -9.53125 C 15.4375 -9 15.785156 -8.375 16.015625 -7.65625 C 16.253906 -6.945312 16.375 -6.203125 16.375 -5.421875 L 16.375 0 L 14.78125 0 L 14.78125 -5.296875 C 14.78125 -5.941406 14.65625 -6.550781 14.40625 -7.125 C 14.15625 -7.695312 13.8125 -8.207031 13.375 -8.65625 C 12.9375 -9.101562 12.414062 -9.453125 11.8125 -9.703125 C 11.21875 -9.953125 10.570312 -10.078125 9.875 -10.078125 L 4.109375 -10.078125 L 4.109375 0 L 2.515625 0 Z M 2.515625 -29.40625 "/></g></g><g transform="translate(236.491734, 288.166387)"><g><path d="M 21.34375 -9.90625 C 21.34375 -8.34375 21.125 -6.921875 20.6875 -5.640625 C 20.25 -4.367188 19.617188 -3.28125 18.796875 -2.375 C 17.972656 -1.46875 16.957031 -0.757812 15.75 -0.25 C 14.539062 0.25 13.179688 0.5 11.671875 0.5 C 10.109375 0.5 8.726562 0.25 7.53125 -0.25 C 6.34375 -0.757812 5.335938 -1.472656 4.515625 -2.390625 C 3.691406 -3.316406 3.066406 -4.414062 2.640625 -5.6875 C 2.222656 -6.96875 2.015625 -8.363281 2.015625 -9.875 L 2.015625 -19.578125 C 2.015625 -21.109375 2.226562 -22.503906 2.65625 -23.765625 C 3.09375 -25.023438 3.734375 -26.109375 4.578125 -27.015625 C 5.421875 -27.929688 6.4375 -28.640625 7.625 -29.140625 C 8.8125 -29.648438 10.160156 -29.90625 11.671875 -29.90625 C 13.210938 -29.90625 14.582031 -29.644531 15.78125 -29.125 C 16.988281 -28.601562 18 -27.878906 18.8125 -26.953125 C 19.625 -26.035156 20.25 -24.9375 20.6875 -23.65625 C 21.125 -22.382812 21.34375 -20.992188 21.34375 -19.484375 Z M 3.859375 -9.40625 C 3.859375 -8.226562 4.03125 -7.132812 4.375 -6.125 C 4.726562 -5.125 5.242188 -4.25 5.921875 -3.5 C 6.597656 -2.757812 7.414062 -2.1875 8.375 -1.78125 C 9.34375 -1.375 10.441406 -1.171875 11.671875 -1.171875 C 12.910156 -1.171875 14.007812 -1.375 14.96875 -1.78125 C 15.9375 -2.1875 16.753906 -2.757812 17.421875 -3.5 C 18.097656 -4.25 18.609375 -5.125 18.953125 -6.125 C 19.304688 -7.132812 19.484375 -8.226562 19.484375 -9.40625 L 19.484375 -19.984375 C 19.484375 -21.109375 19.316406 -22.175781 18.984375 -23.1875 C 18.648438 -24.195312 18.148438 -25.070312 17.484375 -25.8125 C 16.828125 -26.550781 16.007812 -27.132812 15.03125 -27.5625 C 14.050781 -28 12.921875 -28.21875 11.640625 -28.21875 C 10.398438 -28.21875 9.304688 -28.007812 8.359375 -27.59375 C 7.410156 -27.175781 6.597656 -26.601562 5.921875 -25.875 C 5.242188 -25.144531 4.726562 -24.28125 4.375 -23.28125 C 4.03125 -22.289062 3.859375 -21.222656 3.859375 -20.078125 Z M 3.859375 -9.40625 "/></g></g><g transform="translate(259.843732, 288.166387)"><g><path d="M 19.28125 -29.40625 C 20.957031 -29.40625 21.796875 -28.773438 21.796875 -27.515625 C 21.796875 -26.984375 21.679688 -26.441406 21.453125 -25.890625 C 21.234375 -25.347656 21 -24.78125 20.75 -24.1875 L 10.03125 0 L 8.109375 0 L 19.3125 -25.234375 C 19.507812 -25.660156 19.691406 -26.0625 19.859375 -26.4375 C 20.035156 -26.8125 20.125 -27.085938 20.125 -27.265625 C 20.125 -27.484375 20.046875 -27.640625 19.890625 -27.734375 C 19.734375 -27.835938 19.554688 -27.890625 19.359375 -27.890625 L 1.546875 -27.890625 L 1.546875 -29.40625 Z M 19.28125 -29.40625 "/></g></g></g></svg>