<svg xmlns="http://www.w3.org/2000/svg" xmlns:xlink="http://www.w3.org/1999/xlink" width="500" zoomAndPan="magnify" viewBox="0 0 375 374.999991" height="500" preserveAspectRatio="xMidYMid meet" version="1.0"><defs><g/><clipPath id="a021f21578"><path d="M 113 36 L 258 36 L 258 215 L 113 215 Z M 113 36 " clip-rule="nonzero"/></clipPath><clipPath id="016e2f53e5"><path d="M 254.476562 88.296875 C 252.597656 88.296875 251.074219 89.820312 251.074219 91.699219 C 251.074219 126.605469 223.601562 155.214844 189.140625 157.039062 C 190.429688 133.222656 204.816406 111.621094 226.535156 101.347656 C 228.230469 100.546875 228.957031 98.515625 228.15625 96.820312 C 227.347656 95.121094 225.324219 94.390625 223.625 95.199219 C 217.558594 98.066406 212.027344 101.753906 207.101562 106.058594 C 213.042969 81.898438 206.265625 55.652344 188.050781 37.433594 C 186.71875 36.105469 184.566406 36.105469 183.238281 37.433594 C 181.910156 38.761719 181.910156 40.917969 183.238281 42.246094 C 204.058594 63.0625 208.460938 95.460938 193.945312 121.035156 C 193.828125 121.242188 193.738281 121.453125 193.667969 121.667969 C 190.277344 126.96875 187.605469 132.71875 185.679688 138.746094 C 183.773438 132.726562 181.085938 127.050781 177.753906 121.824219 C 177.703125 121.710938 177.660156 121.589844 177.597656 121.476562 C 167.265625 103.605469 165.992188 81.601562 174.191406 62.617188 C 174.933594 60.894531 174.140625 58.890625 172.417969 58.148438 C 170.6875 57.398438 168.691406 58.199219 167.945312 59.921875 C 161.621094 74.570312 160.425781 90.839844 164.160156 106.050781 C 151.472656 95.007812 134.914062 88.296875 116.8125 88.296875 C 114.933594 88.296875 113.410156 89.820312 113.410156 91.699219 C 113.410156 110.535156 120.664062 127.703125 132.519531 140.578125 C 127.457031 139.449219 122.207031 138.835938 116.8125 138.835938 C 114.933594 138.835938 113.410156 140.359375 113.410156 142.238281 C 113.410156 167.546875 126.925781 191.335938 148.6875 204.3125 C 150.296875 205.273438 152.386719 204.75 153.351562 203.136719 C 154.3125 201.523438 153.785156 199.433594 152.171875 198.472656 C 133.464844 187.3125 121.480469 167.335938 120.308594 145.730469 C 154.765625 147.554688 182.242188 176.167969 182.242188 211.070312 C 182.242188 212.949219 183.765625 214.472656 185.644531 214.472656 C 225.472656 214.472656 257.878906 182.070312 257.878906 142.238281 C 257.878906 140.359375 256.355469 138.835938 254.476562 138.835938 C 249.082031 138.835938 243.832031 139.449219 238.769531 140.578125 C 250.625 127.703125 257.878906 110.535156 257.878906 91.699219 C 257.878906 89.820312 256.355469 88.296875 254.476562 88.296875 Z M 182.152344 157.039062 C 148.84375 155.277344 122.0625 128.496094 120.304688 95.191406 C 153.609375 96.953125 180.390625 123.734375 182.152344 157.039062 Z M 169.9375 162.191406 C 174.996094 163.320312 180.25 163.933594 185.644531 163.933594 C 191.039062 163.933594 196.289062 163.320312 201.351562 162.191406 C 194.300781 169.851562 188.878906 179.027344 185.644531 189.175781 C 182.410156 179.03125 176.988281 169.851562 169.9375 162.191406 Z M 189.136719 207.578125 C 190.898438 174.273438 217.679688 147.492188 250.984375 145.730469 C 249.222656 179.035156 222.441406 205.816406 189.136719 207.578125 Z M 189.136719 207.578125 " clip-rule="nonzero"/></clipPath><linearGradient x1="46.925011" gradientTransform="matrix(2.267444, 0, 0, 2.267444, 71.35654, 11.16867)" y1="8.458193" x2="54.415698" gradientUnits="userSpaceOnUse" y2="92.154209" id="76042695e0"><stop stop-opacity="1" stop-color="rgb(1.493835%, 2.23999%, 2.23999%)" offset="0"/><stop stop-opacity="1" stop-color="rgb(1.408386%, 2.111816%, 2.111816%)" offset="0.0675903"/><stop stop-opacity="1" stop-color="rgb(1.322937%, 1.985168%, 1.985168%)" offset="0.125"/><stop stop-opacity="1" stop-color="rgb(1.237488%, 1.856995%, 1.856995%)" offset="0.25"/><stop stop-opacity="1" stop-color="rgb(1.068115%, 1.602173%, 1.602173%)" offset="0.375"/><stop stop-opacity="1" stop-color="rgb(0.897217%, 1.347351%, 1.347351%)" offset="0.5"/><stop stop-opacity="1" stop-color="rgb(0.727844%, 1.092529%, 1.092529%)" offset="0.625"/><stop stop-opacity="1" stop-color="rgb(0.556946%, 0.836182%, 0.836182%)" offset="0.75"/><stop stop-opacity="1" stop-color="rgb(0.387573%, 0.58136%, 0.58136%)" offset="0.875"/><stop stop-opacity="1" stop-color="rgb(0.216675%, 0.326538%, 0.326538%)" offset="0.93241"/><stop stop-opacity="1" stop-color="rgb(0.132751%, 0.19989%, 0.19989%)" offset="1"/></linearGradient><clipPath id="c9e6848fd5"><path d="M 71.355469 11.167969 L 300 11.167969 L 300 239.917969 L 71.355469 239.917969 Z M 71.355469 11.167969 " clip-rule="nonzero"/></clipPath><clipPath id="04d02a5784"><path d="M 185.644531 11.167969 C 122.625 11.167969 71.355469 62.4375 71.355469 125.457031 C 71.355469 188.472656 122.625 239.742188 185.644531 239.742188 C 248.664062 239.742188 299.929688 188.472656 299.929688 125.457031 C 299.929688 62.4375 248.664062 11.167969 185.644531 11.167969 Z M 185.644531 232.941406 C 126.375 232.941406 78.160156 184.722656 78.160156 125.457031 C 78.160156 66.1875 126.375 17.972656 185.644531 17.972656 C 244.910156 17.972656 293.128906 66.1875 293.128906 125.457031 C 293.128906 184.722656 244.910156 232.941406 185.644531 232.941406 Z M 185.644531 232.941406 " clip-rule="nonzero"/></clipPath><linearGradient x1="45.528287" gradientTransform="matrix(2.267444, 0, 0, 2.267444, 71.35654, 11.16867)" y1="-4.074257" x2="55.278572" gradientUnits="userSpaceOnUse" y2="104.881416" id="358d93166d"><stop stop-opacity="1" stop-color="rgb(1.599121%, 2.398682%, 2.398682%)" offset="0"/><stop stop-opacity="1" stop-color="rgb(1.53656%, 2.305603%, 2.305603%)" offset="0.0821381"/><stop stop-opacity="1" stop-color="rgb(1.475525%, 2.21405%, 2.21405%)" offset="0.125"/><stop stop-opacity="1" stop-color="rgb(1.364136%, 2.047729%, 2.047729%)" offset="0.25"/><stop stop-opacity="1" stop-color="rgb(1.142883%, 1.716614%, 1.716614%)" offset="0.375"/><stop stop-opacity="1" stop-color="rgb(0.921631%, 1.383972%, 1.383972%)" offset="0.5"/><stop stop-opacity="1" stop-color="rgb(0.700378%, 1.051331%, 1.051331%)" offset="0.625"/><stop stop-opacity="1" stop-color="rgb(0.479126%, 0.720215%, 0.720215%)" offset="0.75"/><stop stop-opacity="1" stop-color="rgb(0.257874%, 0.387573%, 0.387573%)" offset="0.875"/><stop stop-opacity="1" stop-color="rgb(0.0732422%, 0.109863%, 0.109863%)" offset="0.917862"/><stop stop-opacity="1" stop-color="rgb(0%, 0%, 0%)" offset="1"/></linearGradient></defs><g clip-path="url(#a021f21578)"><g clip-path="url(#016e2f53e5)"><path fill="url(#76042695e0)" d="M 113.410156 36.105469 L 113.410156 214.472656 L 257.878906 214.472656 L 257.878906 36.105469 Z M 113.410156 36.105469 " fill-rule="nonzero"/></g></g><g clip-path="url(#c9e6848fd5)"><g clip-path="url(#04d02a5784)"><path fill="url(#358d93166d)" d="M 71.355469 11.167969 L 71.355469 239.742188 L 299.929688 239.742188 L 299.929688 11.167969 Z M 71.355469 11.167969 " fill-rule="nonzero"/></g></g><g fill="#000000" fill-opacity="1"><g transform="translate(93.836358, 289.042599)"><g><path d="M 10.996094 0 L 19.566406 0 L 27.273438 -22.46875 L 27.617188 -22.46875 L 35.324219 0 L 43.9375 0 C 44.199219 -2.207031 44.933594 -5.28125 45.84375 -7.878906 L 51.339844 -23.03125 C 52.335938 -25.972656 53.460938 -28.613281 54.414062 -30.300781 L 45.929688 -30.300781 C 45.84375 -29.089844 45.582031 -27.660156 44.890625 -25.367188 L 39.914062 -11.816406 C 39.351562 -10.214844 38.917969 -8.832031 38.441406 -7.230469 L 38.09375 -7.230469 L 30.128906 -30.300781 L 24.761719 -30.300781 L 16.753906 -7.230469 L 16.40625 -7.230469 C 15.929688 -8.832031 15.496094 -10.214844 14.933594 -11.816406 L 10 -25.367188 C 9.265625 -27.617188 9.046875 -29.089844 8.960938 -30.300781 L 0.433594 -30.300781 C 1.429688 -28.613281 2.554688 -25.972656 3.550781 -23.03125 L 9.046875 -7.835938 C 9.914062 -5.238281 10.734375 -2.207031 10.996094 0 Z M 10.996094 0 "/></g></g></g><g fill="#000000" fill-opacity="1"><g transform="translate(148.656756, 289.042599)"><g><path d="M 3.507812 0 L 11.816406 0 C 11.253906 -1.816406 11.039062 -4.15625 11.039062 -7.011719 L 11.039062 -12.378906 L 29.957031 -12.378906 L 29.957031 -7.011719 C 29.957031 -4.070312 29.609375 -1.6875 29.175781 0 L 37.488281 0 C 36.96875 -1.6875 36.710938 -4.328125 36.710938 -7.273438 L 36.710938 -23.03125 C 36.710938 -25.972656 37.011719 -28.613281 37.488281 -30.300781 L 29.175781 -30.300781 C 29.652344 -28.613281 29.957031 -26.234375 29.957031 -23.289062 L 29.957031 -18.007812 L 11.039062 -18.007812 L 11.039062 -23.289062 C 11.039062 -26.191406 11.339844 -28.527344 11.816406 -30.300781 L 3.507812 -30.300781 C 3.984375 -28.613281 4.328125 -25.972656 4.328125 -23.03125 L 4.328125 -7.273438 C 4.328125 -4.328125 4.027344 -1.6875 3.507812 0 Z M 3.507812 0 "/></g></g></g><g fill="#000000" fill-opacity="1"><g transform="translate(189.631431, 289.042599)"><g><path d="M 3.507812 0 L 11.816406 0 C 11.339844 -1.6875 11.039062 -4.328125 11.039062 -7.273438 L 11.039062 -23.03125 C 11.039062 -25.972656 11.339844 -28.613281 11.816406 -30.300781 L 3.507812 -30.300781 C 3.984375 -28.613281 4.285156 -25.972656 4.285156 -23.03125 L 4.285156 -7.273438 C 4.285156 -4.328125 4.027344 -1.6875 3.507812 0 Z M 3.507812 0 "/></g></g></g><g fill="#000000" fill-opacity="1"><g transform="translate(204.991537, 289.042599)"><g><path d="M 13.550781 0 L 21.859375 0 C 21.339844 -1.730469 21.082031 -4.328125 21.082031 -7.273438 L 21.082031 -24.414062 L 28.570312 -24.414062 C 31.382812 -24.414062 33.03125 -24.15625 34.457031 -23.679688 L 33.117188 -30.300781 L 2.25 -30.300781 L 0.910156 -23.679688 C 2.382812 -24.199219 3.984375 -24.414062 6.796875 -24.414062 L 14.328125 -24.414062 L 14.328125 -7.273438 C 14.328125 -4.328125 14.027344 -1.730469 13.550781 0 Z M 13.550781 0 "/></g></g></g><g fill="#000000" fill-opacity="1"><g transform="translate(240.298124, 289.042599)"><g><path d="M 3.507812 0 L 34.023438 0 L 35.28125 -6.882812 C 34.023438 -6.191406 32.078125 -5.757812 28.65625 -5.757812 L 11.039062 -5.757812 L 11.039062 -12.378906 L 24.976562 -12.378906 C 27.054688 -12.378906 28.484375 -12.292969 29.523438 -12.121094 L 29.523438 -18.269531 C 28.484375 -18.09375 27.054688 -18.007812 24.976562 -18.007812 L 11.039062 -18.007812 L 11.039062 -24.542969 L 28.355469 -24.542969 C 31.339844 -24.542969 33.246094 -24.242188 34.242188 -23.765625 L 33.160156 -30.300781 L 3.507812 -30.300781 C 3.984375 -28.613281 4.328125 -25.972656 4.328125 -23.03125 L 4.328125 -7.273438 C 4.328125 -4.328125 4.027344 -1.6875 3.507812 0 Z M 3.507812 0 "/></g></g></g><g fill="#000000" fill-opacity="1"><g transform="translate(87.47865, 348.381206)"><g><path d="M 18.789062 0.605469 C 28.65625 0.605469 34.933594 -2.898438 34.933594 -8.699219 C 34.933594 -21.082031 9.175781 -15.324219 9.175781 -21.902344 C 9.175781 -24.5 13.507812 -25.195312 18.398438 -25.195312 C 23.507812 -25.195312 28.699219 -23.9375 31.902344 -22.078125 L 31.902344 -28.484375 C 28.484375 -29.914062 23.074219 -30.910156 18.136719 -30.910156 C 9.351562 -30.910156 2.207031 -27.835938 2.207031 -21.992188 C 2.207031 -9.480469 27.921875 -14.976562 27.921875 -8.65625 C 27.921875 -5.972656 24.15625 -5.066406 18.65625 -5.066406 C 12.425781 -5.066406 6.449219 -6.449219 1.90625 -9.351562 L 1.601562 -2.46875 C 6.320312 -0.605469 13.550781 0.605469 18.789062 0.605469 Z M 18.789062 0.605469 "/></g></g></g><g fill="#000000" fill-opacity="1"><g transform="translate(124.083285, 348.381206)"><g><path d="M -0.519531 0 L 7.964844 0 C 8.136719 -1.125 8.875 -2.554688 9.914062 -4.761719 L 11.167969 -7.097656 L 28.355469 -7.097656 L 29.609375 -4.804688 C 30.863281 -2.554688 31.382812 -1.167969 31.558594 0 L 40.042969 0 C 38.875 -1.6875 37.183594 -4.457031 35.757812 -7.273438 L 27.445312 -23.074219 C 26.277344 -25.453125 25.496094 -28.355469 25.109375 -30.300781 L 14.5 -30.300781 C 14.199219 -28.613281 13.460938 -25.886719 12.035156 -23.03125 L 3.808594 -7.273438 C 2.335938 -4.503906 0.648438 -1.6875 -0.519531 0 Z M 13.679688 -12.25 L 17.660156 -19.957031 C 18.441406 -21.644531 18.960938 -23.03125 19.566406 -24.761719 L 19.957031 -24.761719 C 20.519531 -23.074219 21.082031 -21.601562 21.816406 -20 L 25.84375 -12.25 Z M 13.679688 -12.25 "/></g></g></g><g fill="#000000" fill-opacity="1"><g transform="translate(163.586866, 348.381206)"><g><path d="M 3.507812 0 L 11.816406 0 C 11.429688 -1.515625 11.039062 -4.71875 11.039062 -7.75 L 11.039062 -21.949219 L 11.558594 -21.949219 L 32.597656 0 L 38.785156 0 L 38.785156 -23.03125 C 38.785156 -25.972656 39.089844 -28.613281 39.566406 -30.300781 L 31.253906 -30.300781 C 31.644531 -28.917969 32.035156 -26.148438 32.035156 -23.160156 L 32.035156 -9.046875 L 31.472656 -9.046875 L 11.339844 -30.300781 L 3.507812 -30.300781 C 4.027344 -28.613281 4.328125 -25.972656 4.328125 -23.03125 L 4.328125 -7.273438 C 4.328125 -4.328125 3.984375 -1.6875 3.507812 0 Z M 3.507812 0 "/></g></g></g><g fill="#000000" fill-opacity="1"><g transform="translate(206.638417, 348.381206)"><g><path d="M 3.507812 0 L 20.996094 0 C 31.644531 0 38.613281 -5.714844 38.613281 -15.152344 C 38.613281 -24.589844 31.644531 -30.300781 20.996094 -30.300781 L 3.507812 -30.300781 C 3.984375 -28.613281 4.328125 -25.972656 4.328125 -23.03125 L 4.328125 -7.273438 C 4.328125 -4.328125 4.027344 -1.6875 3.507812 0 Z M 11.039062 -5.929688 L 11.039062 -24.414062 L 20.519531 -24.414062 C 27.054688 -24.414062 31.6875 -20.953125 31.6875 -15.152344 C 31.6875 -9.351562 27.054688 -5.929688 20.519531 -5.929688 Z M 11.039062 -5.929688 "/></g></g></g><g fill="#000000" fill-opacity="1"><g transform="translate(247.180423, 348.381206)"><g><path d="M 18.789062 0.605469 C 28.65625 0.605469 34.933594 -2.898438 34.933594 -8.699219 C 34.933594 -21.082031 9.175781 -15.324219 9.175781 -21.902344 C 9.175781 -24.5 13.507812 -25.195312 18.398438 -25.195312 C 23.507812 -25.195312 28.699219 -23.9375 31.902344 -22.078125 L 31.902344 -28.484375 C 28.484375 -29.914062 23.074219 -30.910156 18.136719 -30.910156 C 9.351562 -30.910156 2.207031 -27.835938 2.207031 -21.992188 C 2.207031 -9.480469 27.921875 -14.976562 27.921875 -8.65625 C 27.921875 -5.972656 24.15625 -5.066406 18.65625 -5.066406 C 12.425781 -5.066406 6.449219 -6.449219 1.90625 -9.351562 L 1.601562 -2.46875 C 6.320312 -0.605469 13.550781 0.605469 18.789062 0.605469 Z M 18.789062 0.605469 "/></g></g></g></svg>