<svg xmlns="http://www.w3.org/2000/svg" xmlns:xlink="http://www.w3.org/1999/xlink" width="500" zoomAndPan="magnify" viewBox="0 0 375 374.999991" height="500" preserveAspectRatio="xMidYMid meet" version="1.0"><defs><g/><clipPath id="dec120d717"><path d="M 187.5 0 C 83.945312 0 0 83.945312 0 187.5 C 0 291.054688 83.945312 375 187.5 375 C 291.054688 375 375 291.054688 375 187.5 C 375 83.945312 291.054688 0 187.5 0 Z M 187.5 0 " clip-rule="nonzero"/></clipPath><linearGradient x1="-0" gradientTransform="matrix(1.464844, 0, 0, 1.464844, 0.0000045, 0)" y1="128" x2="255.999988" gradientUnits="userSpaceOnUse" y2="128" id="de96fad6fb"><stop stop-opacity="1" stop-color="rgb(0%, 28.999329%, 67.799377%)" offset="0"/><stop stop-opacity="1" stop-color="rgb(0.309753%, 29.051208%, 67.886353%)" offset="0.00390625"/><stop stop-opacity="1" stop-color="rgb(0.621033%, 29.104614%, 67.974854%)" offset="0.0078125"/><stop stop-opacity="1" stop-color="rgb(0.932312%, 29.156494%, 68.061829%)" offset="0.0117188"/><stop stop-opacity="1" stop-color="rgb(1.243591%, 29.208374%, 68.148804%)" offset="0.015625"/><stop stop-opacity="1" stop-color="rgb(1.553345%, 29.260254%, 68.235779%)" offset="0.0195312"/><stop stop-opacity="1" stop-color="rgb(1.864624%, 29.31366%, 68.32428%)" offset="0.0234375"/><stop stop-opacity="1" stop-color="rgb(2.175903%, 29.36554%, 68.411255%)" offset="0.0273438"/><stop stop-opacity="1" stop-color="rgb(2.487183%, 29.417419%, 68.499756%)" offset="0.03125"/><stop stop-opacity="1" stop-color="rgb(2.796936%, 29.469299%, 68.586731%)" offset="0.0351562"/><stop stop-opacity="1" stop-color="rgb(3.108215%, 29.522705%, 68.673706%)" offset="0.0390625"/><stop stop-opacity="1" stop-color="rgb(3.419495%, 29.574585%, 68.760681%)" offset="0.0429688"/><stop stop-opacity="1" stop-color="rgb(3.730774%, 29.627991%, 68.849182%)" offset="0.046875"/><stop stop-opacity="1" stop-color="rgb(4.040527%, 29.679871%, 68.936157%)" offset="0.0507812"/><stop stop-opacity="1" stop-color="rgb(4.351807%, 29.73175%, 69.024658%)" offset="0.0546875"/><stop stop-opacity="1" stop-color="rgb(4.663086%, 29.78363%, 69.111633%)" offset="0.0585938"/><stop stop-opacity="1" stop-color="rgb(4.974365%, 29.837036%, 69.198608%)" offset="0.0625"/><stop stop-opacity="1" stop-color="rgb(5.284119%, 29.888916%, 69.285583%)" offset="0.0664062"/><stop stop-opacity="1" stop-color="rgb(5.595398%, 29.940796%, 69.374084%)" offset="0.0703125"/><stop stop-opacity="1" stop-color="rgb(5.906677%, 29.992676%, 69.46106%)" offset="0.0742188"/><stop stop-opacity="1" stop-color="rgb(6.217957%, 30.046082%, 69.549561%)" offset="0.078125"/><stop stop-opacity="1" stop-color="rgb(6.529236%, 30.097961%, 69.636536%)" offset="0.0820313"/><stop stop-opacity="1" stop-color="rgb(6.840515%, 30.151367%, 69.723511%)" offset="0.0859375"/><stop stop-opacity="1" stop-color="rgb(7.150269%, 30.203247%, 69.810486%)" offset="0.0898438"/><stop stop-opacity="1" stop-color="rgb(7.461548%, 30.255127%, 69.898987%)" offset="0.09375"/><stop stop-opacity="1" stop-color="rgb(7.772827%, 30.307007%, 69.985962%)" offset="0.0976563"/><stop stop-opacity="1" stop-color="rgb(8.084106%, 30.360413%, 70.074463%)" offset="0.101562"/><stop stop-opacity="1" stop-color="rgb(8.39386%, 30.412292%, 70.161438%)" offset="0.105469"/><stop stop-opacity="1" stop-color="rgb(8.705139%, 30.464172%, 70.249939%)" offset="0.109375"/><stop stop-opacity="1" stop-color="rgb(9.016418%, 30.516052%, 70.336914%)" offset="0.113281"/><stop stop-opacity="1" stop-color="rgb(9.327698%, 30.569458%, 70.423889%)" offset="0.117188"/><stop stop-opacity="1" stop-color="rgb(9.637451%, 30.621338%, 70.510864%)" offset="0.121094"/><stop stop-opacity="1" stop-color="rgb(9.94873%, 30.674744%, 70.599365%)" offset="0.125"/><stop stop-opacity="1" stop-color="rgb(10.26001%, 30.726624%, 70.68634%)" offset="0.128906"/><stop stop-opacity="1" stop-color="rgb(10.571289%, 30.778503%, 70.774841%)" offset="0.132812"/><stop stop-opacity="1" stop-color="rgb(10.881042%, 30.830383%, 70.861816%)" offset="0.136719"/><stop stop-opacity="1" stop-color="rgb(11.192322%, 30.883789%, 70.948792%)" offset="0.140625"/><stop stop-opacity="1" stop-color="rgb(11.503601%, 30.935669%, 71.035767%)" offset="0.144531"/><stop stop-opacity="1" stop-color="rgb(11.81488%, 30.987549%, 71.124268%)" offset="0.148438"/><stop stop-opacity="1" stop-color="rgb(12.12616%, 31.039429%, 71.211243%)" offset="0.152344"/><stop stop-opacity="1" stop-color="rgb(12.437439%, 31.092834%, 71.299744%)" offset="0.15625"/><stop stop-opacity="1" stop-color="rgb(12.747192%, 31.144714%, 71.386719%)" offset="0.160156"/><stop stop-opacity="1" stop-color="rgb(13.058472%, 31.19812%, 71.473694%)" offset="0.164063"/><stop stop-opacity="1" stop-color="rgb(13.369751%, 31.25%, 71.560669%)" offset="0.167969"/><stop stop-opacity="1" stop-color="rgb(13.68103%, 31.30188%, 71.64917%)" offset="0.171875"/><stop stop-opacity="1" stop-color="rgb(13.990784%, 31.35376%, 71.736145%)" offset="0.175781"/><stop stop-opacity="1" stop-color="rgb(14.302063%, 31.407166%, 71.824646%)" offset="0.179688"/><stop stop-opacity="1" stop-color="rgb(14.613342%, 31.459045%, 71.911621%)" offset="0.183594"/><stop stop-opacity="1" stop-color="rgb(14.924622%, 31.512451%, 71.998596%)" offset="0.1875"/><stop stop-opacity="1" stop-color="rgb(15.234375%, 31.564331%, 72.085571%)" offset="0.191406"/><stop stop-opacity="1" stop-color="rgb(15.545654%, 31.616211%, 72.174072%)" offset="0.195313"/><stop stop-opacity="1" stop-color="rgb(15.856934%, 31.668091%, 72.261047%)" offset="0.199219"/><stop stop-opacity="1" stop-color="rgb(16.168213%, 31.721497%, 72.349548%)" offset="0.203125"/><stop stop-opacity="1" stop-color="rgb(16.477966%, 31.773376%, 72.436523%)" offset="0.207031"/><stop stop-opacity="1" stop-color="rgb(16.789246%, 31.825256%, 72.523499%)" offset="0.210938"/><stop stop-opacity="1" stop-color="rgb(17.100525%, 31.877136%, 72.610474%)" offset="0.214844"/><stop stop-opacity="1" stop-color="rgb(17.411804%, 31.930542%, 72.698975%)" offset="0.21875"/><stop stop-opacity="1" stop-color="rgb(17.723083%, 31.982422%, 72.78595%)" offset="0.222656"/><stop stop-opacity="1" stop-color="rgb(18.034363%, 32.035828%, 72.874451%)" offset="0.226563"/><stop stop-opacity="1" stop-color="rgb(18.344116%, 32.087708%, 72.961426%)" offset="0.230469"/><stop stop-opacity="1" stop-color="rgb(18.655396%, 32.139587%, 73.049927%)" offset="0.234375"/><stop stop-opacity="1" stop-color="rgb(18.966675%, 32.191467%, 73.136902%)" offset="0.238281"/><stop stop-opacity="1" stop-color="rgb(19.277954%, 32.244873%, 73.223877%)" offset="0.242188"/><stop stop-opacity="1" stop-color="rgb(19.587708%, 32.296753%, 73.310852%)" offset="0.246094"/><stop stop-opacity="1" stop-color="rgb(19.898987%, 32.348633%, 73.399353%)" offset="0.25"/><stop stop-opacity="1" stop-color="rgb(20.210266%, 32.400513%, 73.486328%)" offset="0.253906"/><stop stop-opacity="1" stop-color="rgb(20.521545%, 32.453918%, 73.574829%)" offset="0.257812"/><stop stop-opacity="1" stop-color="rgb(20.831299%, 32.505798%, 73.661804%)" offset="0.261719"/><stop stop-opacity="1" stop-color="rgb(21.142578%, 32.559204%, 73.748779%)" offset="0.265625"/><stop stop-opacity="1" stop-color="rgb(21.453857%, 32.611084%, 73.835754%)" offset="0.269531"/><stop stop-opacity="1" stop-color="rgb(21.765137%, 32.662964%, 73.924255%)" offset="0.273438"/><stop stop-opacity="1" stop-color="rgb(22.07489%, 32.714844%, 74.01123%)" offset="0.277344"/><stop stop-opacity="1" stop-color="rgb(22.386169%, 32.76825%, 74.099731%)" offset="0.28125"/><stop stop-opacity="1" stop-color="rgb(22.697449%, 32.820129%, 74.186707%)" offset="0.285156"/><stop stop-opacity="1" stop-color="rgb(23.008728%, 32.872009%, 74.273682%)" offset="0.289062"/><stop stop-opacity="1" stop-color="rgb(23.318481%, 32.923889%, 74.360657%)" offset="0.292969"/><stop stop-opacity="1" stop-color="rgb(23.629761%, 32.977295%, 74.449158%)" offset="0.296875"/><stop stop-opacity="1" stop-color="rgb(23.94104%, 33.029175%, 74.536133%)" offset="0.300781"/><stop stop-opacity="1" stop-color="rgb(24.252319%, 33.082581%, 74.624634%)" offset="0.304688"/><stop stop-opacity="1" stop-color="rgb(24.563599%, 33.13446%, 74.711609%)" offset="0.308594"/><stop stop-opacity="1" stop-color="rgb(24.874878%, 33.18634%, 74.798584%)" offset="0.3125"/><stop stop-opacity="1" stop-color="rgb(25.184631%, 33.23822%, 74.885559%)" offset="0.316406"/><stop stop-opacity="1" stop-color="rgb(25.495911%, 33.291626%, 74.97406%)" offset="0.320312"/><stop stop-opacity="1" stop-color="rgb(25.80719%, 33.343506%, 75.061035%)" offset="0.324219"/><stop stop-opacity="1" stop-color="rgb(26.118469%, 33.395386%, 75.149536%)" offset="0.328125"/><stop stop-opacity="1" stop-color="rgb(26.428223%, 33.447266%, 75.236511%)" offset="0.332031"/><stop stop-opacity="1" stop-color="rgb(26.739502%, 33.500671%, 75.323486%)" offset="0.335938"/><stop stop-opacity="1" stop-color="rgb(27.050781%, 33.552551%, 75.410461%)" offset="0.339844"/><stop stop-opacity="1" stop-color="rgb(27.362061%, 33.605957%, 75.498962%)" offset="0.34375"/><stop stop-opacity="1" stop-color="rgb(27.671814%, 33.657837%, 75.585938%)" offset="0.347656"/><stop stop-opacity="1" stop-color="rgb(27.983093%, 33.709717%, 75.674438%)" offset="0.351562"/><stop stop-opacity="1" stop-color="rgb(28.294373%, 33.761597%, 75.761414%)" offset="0.355469"/><stop stop-opacity="1" stop-color="rgb(28.605652%, 33.815002%, 75.849915%)" offset="0.359375"/><stop stop-opacity="1" stop-color="rgb(28.915405%, 33.866882%, 75.93689%)" offset="0.363281"/><stop stop-opacity="1" stop-color="rgb(29.226685%, 33.920288%, 76.023865%)" offset="0.367188"/><stop stop-opacity="1" stop-color="rgb(29.537964%, 33.972168%, 76.11084%)" offset="0.371094"/><stop stop-opacity="1" stop-color="rgb(29.849243%, 34.024048%, 76.199341%)" offset="0.375"/><stop stop-opacity="1" stop-color="rgb(30.160522%, 34.075928%, 76.286316%)" offset="0.378906"/><stop stop-opacity="1" stop-color="rgb(30.471802%, 34.129333%, 76.374817%)" offset="0.382812"/><stop stop-opacity="1" stop-color="rgb(30.781555%, 34.181213%, 76.461792%)" offset="0.386719"/><stop stop-opacity="1" stop-color="rgb(31.092834%, 34.233093%, 76.548767%)" offset="0.390625"/><stop stop-opacity="1" stop-color="rgb(31.404114%, 34.284973%, 76.635742%)" offset="0.394531"/><stop stop-opacity="1" stop-color="rgb(31.715393%, 34.338379%, 76.724243%)" offset="0.398438"/><stop stop-opacity="1" stop-color="rgb(32.025146%, 34.390259%, 76.811218%)" offset="0.402344"/><stop stop-opacity="1" stop-color="rgb(32.336426%, 34.443665%, 76.899719%)" offset="0.40625"/><stop stop-opacity="1" stop-color="rgb(32.647705%, 34.495544%, 76.986694%)" offset="0.410156"/><stop stop-opacity="1" stop-color="rgb(32.958984%, 34.547424%, 77.073669%)" offset="0.414062"/><stop stop-opacity="1" stop-color="rgb(33.268738%, 34.599304%, 77.160645%)" offset="0.417969"/><stop stop-opacity="1" stop-color="rgb(33.580017%, 34.65271%, 77.249146%)" offset="0.421875"/><stop stop-opacity="1" stop-color="rgb(33.891296%, 34.70459%, 77.336121%)" offset="0.425781"/><stop stop-opacity="1" stop-color="rgb(34.202576%, 34.75647%, 77.424622%)" offset="0.429688"/><stop stop-opacity="1" stop-color="rgb(34.512329%, 34.80835%, 77.511597%)" offset="0.433594"/><stop stop-opacity="1" stop-color="rgb(34.823608%, 34.861755%, 77.598572%)" offset="0.4375"/><stop stop-opacity="1" stop-color="rgb(35.134888%, 34.913635%, 77.685547%)" offset="0.441406"/><stop stop-opacity="1" stop-color="rgb(35.446167%, 34.967041%, 77.774048%)" offset="0.445312"/><stop stop-opacity="1" stop-color="rgb(35.757446%, 35.018921%, 77.861023%)" offset="0.449219"/><stop stop-opacity="1" stop-color="rgb(36.068726%, 35.070801%, 77.949524%)" offset="0.453125"/><stop stop-opacity="1" stop-color="rgb(36.378479%, 35.122681%, 78.036499%)" offset="0.457031"/><stop stop-opacity="1" stop-color="rgb(36.689758%, 35.176086%, 78.123474%)" offset="0.460938"/><stop stop-opacity="1" stop-color="rgb(37.001038%, 35.227966%, 78.210449%)" offset="0.464844"/><stop stop-opacity="1" stop-color="rgb(37.312317%, 35.279846%, 78.29895%)" offset="0.46875"/><stop stop-opacity="1" stop-color="rgb(37.62207%, 35.331726%, 78.385925%)" offset="0.472656"/><stop stop-opacity="1" stop-color="rgb(37.93335%, 35.385132%, 78.474426%)" offset="0.476562"/><stop stop-opacity="1" stop-color="rgb(38.244629%, 35.437012%, 78.561401%)" offset="0.480469"/><stop stop-opacity="1" stop-color="rgb(38.555908%, 35.490417%, 78.649902%)" offset="0.484375"/><stop stop-opacity="1" stop-color="rgb(38.865662%, 35.542297%, 78.736877%)" offset="0.488281"/><stop stop-opacity="1" stop-color="rgb(39.176941%, 35.594177%, 78.823853%)" offset="0.492188"/><stop stop-opacity="1" stop-color="rgb(39.48822%, 35.646057%, 78.910828%)" offset="0.496094"/><stop stop-opacity="1" stop-color="rgb(39.7995%, 35.699463%, 78.999329%)" offset="0.5"/><stop stop-opacity="1" stop-color="rgb(40.109253%, 35.751343%, 79.086304%)" offset="0.503906"/><stop stop-opacity="1" stop-color="rgb(40.420532%, 35.803223%, 79.174805%)" offset="0.507812"/><stop stop-opacity="1" stop-color="rgb(40.731812%, 35.855103%, 79.26178%)" offset="0.511719"/><stop stop-opacity="1" stop-color="rgb(41.043091%, 35.908508%, 79.348755%)" offset="0.515625"/><stop stop-opacity="1" stop-color="rgb(41.352844%, 35.960388%, 79.43573%)" offset="0.519531"/><stop stop-opacity="1" stop-color="rgb(41.664124%, 36.013794%, 79.524231%)" offset="0.523438"/><stop stop-opacity="1" stop-color="rgb(41.975403%, 36.065674%, 79.611206%)" offset="0.527344"/><stop stop-opacity="1" stop-color="rgb(42.286682%, 36.117554%, 79.699707%)" offset="0.53125"/><stop stop-opacity="1" stop-color="rgb(42.597961%, 36.169434%, 79.786682%)" offset="0.535156"/><stop stop-opacity="1" stop-color="rgb(42.909241%, 36.222839%, 79.873657%)" offset="0.539062"/><stop stop-opacity="1" stop-color="rgb(43.218994%, 36.274719%, 79.960632%)" offset="0.542969"/><stop stop-opacity="1" stop-color="rgb(43.530273%, 36.326599%, 80.049133%)" offset="0.546875"/><stop stop-opacity="1" stop-color="rgb(43.841553%, 36.378479%, 80.136108%)" offset="0.550781"/><stop stop-opacity="1" stop-color="rgb(44.152832%, 36.431885%, 80.224609%)" offset="0.554688"/><stop stop-opacity="1" stop-color="rgb(44.462585%, 36.483765%, 80.311584%)" offset="0.558594"/><stop stop-opacity="1" stop-color="rgb(44.773865%, 36.53717%, 80.39856%)" offset="0.5625"/><stop stop-opacity="1" stop-color="rgb(45.085144%, 36.58905%, 80.485535%)" offset="0.566406"/><stop stop-opacity="1" stop-color="rgb(45.396423%, 36.64093%, 80.574036%)" offset="0.570312"/><stop stop-opacity="1" stop-color="rgb(45.706177%, 36.69281%, 80.661011%)" offset="0.574219"/><stop stop-opacity="1" stop-color="rgb(46.017456%, 36.746216%, 80.749512%)" offset="0.578125"/><stop stop-opacity="1" stop-color="rgb(46.328735%, 36.798096%, 80.836487%)" offset="0.582031"/><stop stop-opacity="1" stop-color="rgb(46.640015%, 36.851501%, 80.924988%)" offset="0.585938"/><stop stop-opacity="1" stop-color="rgb(46.949768%, 36.903381%, 81.011963%)" offset="0.589844"/><stop stop-opacity="1" stop-color="rgb(47.261047%, 36.955261%, 81.098938%)" offset="0.59375"/><stop stop-opacity="1" stop-color="rgb(47.572327%, 37.007141%, 81.185913%)" offset="0.597656"/><stop stop-opacity="1" stop-color="rgb(47.883606%, 37.060547%, 81.274414%)" offset="0.601562"/><stop stop-opacity="1" stop-color="rgb(48.194885%, 37.112427%, 81.361389%)" offset="0.605469"/><stop stop-opacity="1" stop-color="rgb(48.506165%, 37.164307%, 81.44989%)" offset="0.609375"/><stop stop-opacity="1" stop-color="rgb(48.815918%, 37.216187%, 81.536865%)" offset="0.613281"/><stop stop-opacity="1" stop-color="rgb(49.127197%, 37.269592%, 81.62384%)" offset="0.617188"/><stop stop-opacity="1" stop-color="rgb(49.438477%, 37.321472%, 81.710815%)" offset="0.621094"/><stop stop-opacity="1" stop-color="rgb(49.749756%, 37.374878%, 81.799316%)" offset="0.625"/><stop stop-opacity="1" stop-color="rgb(50.059509%, 37.426758%, 81.886292%)" offset="0.628906"/><stop stop-opacity="1" stop-color="rgb(50.370789%, 37.478638%, 81.974792%)" offset="0.632813"/><stop stop-opacity="1" stop-color="rgb(50.682068%, 37.530518%, 82.061768%)" offset="0.636719"/><stop stop-opacity="1" stop-color="rgb(50.993347%, 37.583923%, 82.148743%)" offset="0.640625"/><stop stop-opacity="1" stop-color="rgb(51.303101%, 37.635803%, 82.235718%)" offset="0.644531"/><stop stop-opacity="1" stop-color="rgb(51.61438%, 37.687683%, 82.324219%)" offset="0.648438"/><stop stop-opacity="1" stop-color="rgb(51.925659%, 37.739563%, 82.411194%)" offset="0.652344"/><stop stop-opacity="1" stop-color="rgb(52.236938%, 37.792969%, 82.499695%)" offset="0.65625"/><stop stop-opacity="1" stop-color="rgb(52.546692%, 37.844849%, 82.58667%)" offset="0.660156"/><stop stop-opacity="1" stop-color="rgb(52.857971%, 37.898254%, 82.673645%)" offset="0.664062"/><stop stop-opacity="1" stop-color="rgb(53.16925%, 37.950134%, 82.76062%)" offset="0.667969"/><stop stop-opacity="1" stop-color="rgb(53.48053%, 38.002014%, 82.849121%)" offset="0.671875"/><stop stop-opacity="1" stop-color="rgb(53.791809%, 38.053894%, 82.936096%)" offset="0.675781"/><stop stop-opacity="1" stop-color="rgb(54.103088%, 38.1073%, 83.024597%)" offset="0.679688"/><stop stop-opacity="1" stop-color="rgb(54.412842%, 38.15918%, 83.111572%)" offset="0.683594"/><stop stop-opacity="1" stop-color="rgb(54.724121%, 38.21106%, 83.198547%)" offset="0.6875"/><stop stop-opacity="1" stop-color="rgb(55.0354%, 38.262939%, 83.285522%)" offset="0.691406"/><stop stop-opacity="1" stop-color="rgb(55.34668%, 38.316345%, 83.374023%)" offset="0.695312"/><stop stop-opacity="1" stop-color="rgb(55.656433%, 38.368225%, 83.460999%)" offset="0.699219"/><stop stop-opacity="1" stop-color="rgb(55.967712%, 38.421631%, 83.5495%)" offset="0.703125"/><stop stop-opacity="1" stop-color="rgb(56.278992%, 38.473511%, 83.636475%)" offset="0.707031"/><stop stop-opacity="1" stop-color="rgb(56.590271%, 38.525391%, 83.724976%)" offset="0.710938"/><stop stop-opacity="1" stop-color="rgb(56.900024%, 38.577271%, 83.811951%)" offset="0.714844"/><stop stop-opacity="1" stop-color="rgb(57.211304%, 38.630676%, 83.898926%)" offset="0.71875"/><stop stop-opacity="1" stop-color="rgb(57.522583%, 38.682556%, 83.985901%)" offset="0.722656"/><stop stop-opacity="1" stop-color="rgb(57.833862%, 38.734436%, 84.074402%)" offset="0.726562"/><stop stop-opacity="1" stop-color="rgb(58.143616%, 38.786316%, 84.161377%)" offset="0.730469"/><stop stop-opacity="1" stop-color="rgb(58.454895%, 38.839722%, 84.249878%)" offset="0.734375"/><stop stop-opacity="1" stop-color="rgb(58.766174%, 38.891602%, 84.336853%)" offset="0.738281"/><stop stop-opacity="1" stop-color="rgb(59.077454%, 38.945007%, 84.423828%)" offset="0.742188"/><stop stop-opacity="1" stop-color="rgb(59.387207%, 38.996887%, 84.510803%)" offset="0.746094"/><stop stop-opacity="1" stop-color="rgb(59.698486%, 39.048767%, 84.599304%)" offset="0.75"/><stop stop-opacity="1" stop-color="rgb(60.009766%, 39.100647%, 84.686279%)" offset="0.753906"/><stop stop-opacity="1" stop-color="rgb(60.321045%, 39.154053%, 84.77478%)" offset="0.757813"/><stop stop-opacity="1" stop-color="rgb(60.632324%, 39.205933%, 84.861755%)" offset="0.761719"/><stop stop-opacity="1" stop-color="rgb(60.943604%, 39.259338%, 84.94873%)" offset="0.765625"/><stop stop-opacity="1" stop-color="rgb(61.253357%, 39.311218%, 85.035706%)" offset="0.769531"/><stop stop-opacity="1" stop-color="rgb(61.564636%, 39.363098%, 85.124207%)" offset="0.773438"/><stop stop-opacity="1" stop-color="rgb(61.875916%, 39.414978%, 85.211182%)" offset="0.777344"/><stop stop-opacity="1" stop-color="rgb(62.187195%, 39.468384%, 85.299683%)" offset="0.78125"/><stop stop-opacity="1" stop-color="rgb(62.496948%, 39.520264%, 85.386658%)" offset="0.785156"/><stop stop-opacity="1" stop-color="rgb(62.808228%, 39.572144%, 85.473633%)" offset="0.789062"/><stop stop-opacity="1" stop-color="rgb(63.119507%, 39.624023%, 85.560608%)" offset="0.792969"/><stop stop-opacity="1" stop-color="rgb(63.430786%, 39.677429%, 85.649109%)" offset="0.796875"/><stop stop-opacity="1" stop-color="rgb(63.74054%, 39.729309%, 85.736084%)" offset="0.800781"/><stop stop-opacity="1" stop-color="rgb(64.051819%, 39.782715%, 85.824585%)" offset="0.804688"/><stop stop-opacity="1" stop-color="rgb(64.363098%, 39.834595%, 85.91156%)" offset="0.808594"/><stop stop-opacity="1" stop-color="rgb(64.674377%, 39.886475%, 85.998535%)" offset="0.8125"/><stop stop-opacity="1" stop-color="rgb(64.984131%, 39.938354%, 86.08551%)" offset="0.816406"/><stop stop-opacity="1" stop-color="rgb(65.29541%, 39.99176%, 86.174011%)" offset="0.820312"/><stop stop-opacity="1" stop-color="rgb(65.606689%, 40.04364%, 86.260986%)" offset="0.824219"/><stop stop-opacity="1" stop-color="rgb(65.917969%, 40.09552%, 86.349487%)" offset="0.828125"/><stop stop-opacity="1" stop-color="rgb(66.229248%, 40.1474%, 86.436462%)" offset="0.832031"/><stop stop-opacity="1" stop-color="rgb(66.540527%, 40.200806%, 86.524963%)" offset="0.835938"/><stop stop-opacity="1" stop-color="rgb(66.850281%, 40.252686%, 86.611938%)" offset="0.839844"/><stop stop-opacity="1" stop-color="rgb(67.16156%, 40.306091%, 86.698914%)" offset="0.84375"/><stop stop-opacity="1" stop-color="rgb(67.472839%, 40.357971%, 86.785889%)" offset="0.847656"/><stop stop-opacity="1" stop-color="rgb(67.784119%, 40.409851%, 86.87439%)" offset="0.851562"/><stop stop-opacity="1" stop-color="rgb(68.093872%, 40.461731%, 86.961365%)" offset="0.855469"/><stop stop-opacity="1" stop-color="rgb(68.405151%, 40.515137%, 87.049866%)" offset="0.859375"/><stop stop-opacity="1" stop-color="rgb(68.716431%, 40.567017%, 87.136841%)" offset="0.863281"/><stop stop-opacity="1" stop-color="rgb(69.02771%, 40.618896%, 87.223816%)" offset="0.867188"/><stop stop-opacity="1" stop-color="rgb(69.337463%, 40.670776%, 87.310791%)" offset="0.871094"/><stop stop-opacity="1" stop-color="rgb(69.648743%, 40.724182%, 87.399292%)" offset="0.875"/><stop stop-opacity="1" stop-color="rgb(69.960022%, 40.776062%, 87.486267%)" offset="0.878906"/><stop stop-opacity="1" stop-color="rgb(70.271301%, 40.829468%, 87.574768%)" offset="0.882812"/><stop stop-opacity="1" stop-color="rgb(70.581055%, 40.881348%, 87.661743%)" offset="0.886719"/><stop stop-opacity="1" stop-color="rgb(70.892334%, 40.933228%, 87.748718%)" offset="0.890625"/><stop stop-opacity="1" stop-color="rgb(71.203613%, 40.985107%, 87.835693%)" offset="0.894531"/><stop stop-opacity="1" stop-color="rgb(71.514893%, 41.038513%, 87.924194%)" offset="0.898438"/><stop stop-opacity="1" stop-color="rgb(71.826172%, 41.090393%, 88.011169%)" offset="0.902344"/><stop stop-opacity="1" stop-color="rgb(72.137451%, 41.142273%, 88.09967%)" offset="0.90625"/><stop stop-opacity="1" stop-color="rgb(72.447205%, 41.194153%, 88.186646%)" offset="0.910156"/><stop stop-opacity="1" stop-color="rgb(72.758484%, 41.247559%, 88.273621%)" offset="0.914062"/><stop stop-opacity="1" stop-color="rgb(73.069763%, 41.299438%, 88.360596%)" offset="0.917969"/><stop stop-opacity="1" stop-color="rgb(73.381042%, 41.352844%, 88.449097%)" offset="0.921875"/><stop stop-opacity="1" stop-color="rgb(73.690796%, 41.404724%, 88.536072%)" offset="0.925781"/><stop stop-opacity="1" stop-color="rgb(74.002075%, 41.456604%, 88.624573%)" offset="0.929688"/><stop stop-opacity="1" stop-color="rgb(74.313354%, 41.508484%, 88.711548%)" offset="0.933594"/><stop stop-opacity="1" stop-color="rgb(74.624634%, 41.56189%, 88.798523%)" offset="0.9375"/><stop stop-opacity="1" stop-color="rgb(74.934387%, 41.61377%, 88.885498%)" offset="0.941406"/><stop stop-opacity="1" stop-color="rgb(75.245667%, 41.667175%, 88.973999%)" offset="0.945312"/><stop stop-opacity="1" stop-color="rgb(75.556946%, 41.719055%, 89.060974%)" offset="0.949219"/><stop stop-opacity="1" stop-color="rgb(75.868225%, 41.770935%, 89.149475%)" offset="0.953125"/><stop stop-opacity="1" stop-color="rgb(76.177979%, 41.822815%, 89.23645%)" offset="0.957031"/><stop stop-opacity="1" stop-color="rgb(76.489258%, 41.876221%, 89.324951%)" offset="0.960938"/><stop stop-opacity="1" stop-color="rgb(76.800537%, 41.928101%, 89.411926%)" offset="0.964844"/><stop stop-opacity="1" stop-color="rgb(77.111816%, 41.97998%, 89.498901%)" offset="0.96875"/><stop stop-opacity="1" stop-color="rgb(77.42157%, 42.03186%, 89.585876%)" offset="0.972656"/><stop stop-opacity="1" stop-color="rgb(77.732849%, 42.085266%, 89.674377%)" offset="0.976562"/><stop stop-opacity="1" stop-color="rgb(78.044128%, 42.137146%, 89.761353%)" offset="0.980469"/><stop stop-opacity="1" stop-color="rgb(78.355408%, 42.190552%, 89.849854%)" offset="0.984375"/><stop stop-opacity="1" stop-color="rgb(78.666687%, 42.242432%, 89.936829%)" offset="0.988281"/><stop stop-opacity="1" stop-color="rgb(78.977966%, 42.294312%, 90.023804%)" offset="0.992188"/><stop stop-opacity="1" stop-color="rgb(79.28772%, 42.346191%, 90.110779%)" offset="0.996094"/><stop stop-opacity="1" stop-color="rgb(79.598999%, 42.399597%, 90.19928%)" offset="1"/></linearGradient></defs><rect x="-37.5" width="450" fill="#ffffff" y="-37.499999" height="449.999989" fill-opacity="1"/><rect x="-37.5" width="450" fill="#ffffff" y="-37.499999" height="449.999989" fill-opacity="1"/><g clip-path="url(#dec120d717)"><rect x="-37.5" fill="url(#de96fad6fb)" width="450" y="-37.499999" height="449.999989"/></g><path fill="#ffffff" d="M 232.347656 194.175781 C 234.367188 190.691406 234.550781 186.226562 232.347656 182.4375 L 222.136719 164.765625 L 211.925781 182.4375 C 209.722656 186.164062 209.90625 190.691406 211.925781 194.175781 C 212.902344 195.886719 214.371094 197.417969 216.265625 198.457031 C 218.101562 199.496094 220.117188 200.046875 222.136719 199.984375 C 224.15625 199.984375 226.171875 199.496094 228.007812 198.457031 C 229.902344 197.417969 231.371094 195.949219 232.347656 194.175781 Z M 142.648438 148.804688 C 140.632812 152.292969 140.449219 156.753906 142.648438 160.546875 L 152.859375 178.21875 L 163.070312 160.546875 C 165.210938 156.816406 165.089844 152.292969 163.070312 148.804688 C 162.09375 147.09375 160.625 145.566406 158.730469 144.527344 C 156.894531 143.488281 154.878906 142.9375 152.859375 142.996094 C 150.84375 142.996094 148.824219 143.488281 146.988281 144.527344 C 145.09375 145.566406 143.628906 147.03125 142.648438 148.804688 Z M 142.648438 148.804688 " fill-opacity="1" fill-rule="evenodd"/><path fill="#ffffff" d="M 216.082031 175.402344 L 222.199219 164.824219 L 213.945312 150.519531 L 213.945312 150.457031 L 194.804688 117.378906 C 190.523438 109.980469 184.53125 103.804688 177.132812 99.523438 L 176.460938 99.15625 C 169.246094 95.121094 161.113281 93.101562 152.796875 93.101562 C 144.484375 93.101562 136.351562 95.121094 129.074219 99.15625 L 128.523438 99.460938 C 121.003906 103.804688 115.074219 109.980469 110.792969 117.378906 L 91.652344 150.457031 L 91.652344 150.519531 L 64.628906 197.355469 C 61.386719 202.980469 63.34375 210.132812 68.96875 213.375 C 74.59375 216.617188 81.75 214.660156 84.988281 209.035156 L 112.320312 161.707031 L 131.09375 129.179688 C 133.292969 125.328125 136.351562 122.085938 140.203125 119.882812 L 140.632812 119.640625 C 144.300781 117.621094 148.519531 116.707031 152.738281 116.707031 C 157.019531 116.707031 161.175781 117.621094 164.90625 119.640625 L 165.273438 119.824219 C 169.183594 122.085938 172.242188 125.328125 174.445312 129.179688 L 193.214844 161.707031 L 211.679688 193.625 C 209.96875 190.203125 209.90625 186.042969 211.988281 182.496094 Z M 158.914062 167.578125 L 163.011719 160.484375 C 165.089844 156.9375 165.027344 152.71875 163.316406 149.355469 L 181.78125 181.273438 L 200.554688 213.804688 C 202.753906 217.65625 205.8125 220.894531 209.722656 223.160156 L 210.089844 223.339844 C 213.820312 225.421875 217.980469 226.277344 222.257812 226.277344 C 226.539062 226.277344 230.695312 225.359375 234.367188 223.339844 L 234.792969 223.097656 C 238.644531 220.894531 241.703125 217.65625 243.90625 213.804688 L 262.675781 181.273438 L 290.007812 133.949219 C 293.25 128.324219 300.402344 126.367188 306.027344 129.605469 C 311.652344 132.847656 313.609375 140 310.367188 145.625 L 283.34375 192.464844 L 283.34375 192.523438 L 264.265625 225.605469 C 259.984375 233.003906 253.992188 239.179688 246.535156 243.519531 L 245.984375 243.824219 C 238.707031 247.921875 230.574219 249.878906 222.257812 249.878906 C 213.945312 249.878906 205.8125 247.859375 198.597656 243.824219 L 197.921875 243.457031 C 190.523438 239.179688 184.53125 233.003906 180.253906 225.605469 L 161.175781 192.523438 L 161.175781 192.464844 L 152.921875 178.15625 Z M 308.71875 104.84375 C 308.71875 111.261719 313.914062 116.460938 320.335938 116.460938 C 326.753906 116.460938 331.953125 111.261719 331.953125 104.84375 C 331.953125 98.421875 326.753906 93.226562 320.335938 93.226562 C 313.914062 93.164062 308.71875 98.421875 308.71875 104.84375 Z M 66.277344 238.140625 C 66.277344 231.71875 61.082031 226.519531 54.660156 226.519531 C 48.242188 226.519531 43.042969 231.71875 43.042969 238.140625 C 43.042969 244.558594 48.242188 249.757812 54.660156 249.757812 C 61.082031 249.757812 66.277344 244.558594 66.277344 238.140625 Z M 66.277344 238.140625 " fill-opacity="1" fill-rule="evenodd"/><path fill="#ffffff" d="M 152.796875 178.15625 L 142.585938 160.484375 C 140.386719 156.753906 140.570312 152.230469 142.585938 148.746094 L 109.445312 206.097656 L 94.34375 232.390625 C 91.105469 238.015625 93 245.230469 98.625 248.472656 C 104.25 251.714844 111.464844 249.816406 114.707031 244.191406 L 129.746094 218.207031 Z M 222.199219 164.824219 L 232.410156 182.496094 C 234.609375 186.226562 234.425781 190.75 232.410156 194.238281 L 265.550781 136.882812 L 280.714844 110.652344 C 283.953125 105.027344 282.058594 97.8125 276.433594 94.570312 C 270.808594 91.332031 263.59375 93.226562 260.351562 98.851562 L 245.3125 124.835938 Z M 222.199219 164.824219 " fill-opacity="1" fill-rule="evenodd"/><g fill="#ffffff" fill-opacity="1"><g transform="translate(120.404044, 286.030628)"><g><path d="M 6.75 0.21875 C 5.6875 0.21875 4.742188 0.0859375 3.921875 -0.171875 C 3.097656 -0.429688 2.410156 -0.769531 1.859375 -1.1875 C 1.316406 -1.613281 0.898438 -2.082031 0.609375 -2.59375 L 2.265625 -4.609375 L 2.53125 -4.609375 C 2.988281 -3.929688 3.566406 -3.390625 4.265625 -2.984375 C 4.972656 -2.585938 5.800781 -2.390625 6.75 -2.390625 C 7.550781 -2.390625 8.15625 -2.554688 8.5625 -2.890625 C 8.96875 -3.234375 9.171875 -3.703125 9.171875 -4.296875 C 9.171875 -4.660156 9.101562 -4.960938 8.96875 -5.203125 C 8.84375 -5.441406 8.628906 -5.648438 8.328125 -5.828125 C 8.023438 -6.003906 7.613281 -6.15625 7.09375 -6.28125 L 5.125 -6.71875 C 3.757812 -7.03125 2.742188 -7.546875 2.078125 -8.265625 C 1.410156 -8.992188 1.078125 -9.941406 1.078125 -11.109375 C 1.078125 -11.960938 1.289062 -12.710938 1.71875 -13.359375 C 2.144531 -14.015625 2.769531 -14.523438 3.59375 -14.890625 C 4.414062 -15.253906 5.398438 -15.4375 6.546875 -15.4375 C 7.710938 -15.4375 8.710938 -15.28125 9.546875 -14.96875 C 10.390625 -14.65625 11.097656 -14.179688 11.671875 -13.546875 L 10.1875 -11.515625 L 9.921875 -11.515625 C 9.492188 -11.960938 9.003906 -12.296875 8.453125 -12.515625 C 7.898438 -12.742188 7.265625 -12.859375 6.546875 -12.859375 C 5.722656 -12.859375 5.09375 -12.710938 4.65625 -12.421875 C 4.226562 -12.128906 4.015625 -11.726562 4.015625 -11.21875 C 4.015625 -10.738281 4.164062 -10.351562 4.46875 -10.0625 C 4.769531 -9.78125 5.289062 -9.5625 6.03125 -9.40625 L 8.03125 -8.984375 C 9.507812 -8.671875 10.582031 -8.140625 11.25 -7.390625 C 11.914062 -6.648438 12.25 -5.679688 12.25 -4.484375 C 12.25 -3.535156 12.039062 -2.707031 11.625 -2 C 11.21875 -1.300781 10.601562 -0.753906 9.78125 -0.359375 C 8.957031 0.0234375 7.945312 0.21875 6.75 0.21875 Z M 6.75 0.21875 "/></g></g></g><g fill="#ffffff" fill-opacity="1"><g transform="translate(133.47101, 286.030628)"><g><path d="M 7.921875 -2.734375 L 8.671875 -0.609375 C 8.359375 -0.347656 7.960938 -0.144531 7.484375 0 C 7.015625 0.144531 6.484375 0.21875 5.890625 0.21875 C 4.648438 0.21875 3.707031 -0.117188 3.0625 -0.796875 C 2.414062 -1.472656 2.09375 -2.457031 2.09375 -3.75 L 2.09375 -9.203125 L 0.34375 -9.203125 L 0.34375 -11.484375 L 2.09375 -11.484375 L 2.09375 -13.71875 L 4.96875 -14.1875 L 4.96875 -11.484375 L 8.234375 -11.484375 L 8.234375 -9.203125 L 4.96875 -9.203125 L 4.96875 -3.953125 C 4.96875 -3.378906 5.085938 -2.960938 5.328125 -2.703125 C 5.566406 -2.453125 5.910156 -2.328125 6.359375 -2.328125 C 6.867188 -2.328125 7.316406 -2.460938 7.703125 -2.734375 Z M 7.921875 -2.734375 "/></g></g></g><g fill="#ffffff" fill-opacity="1"><g transform="translate(142.386929, 286.030628)"><g><path d="M 4.46875 0.21875 C 3.738281 0.21875 3.101562 0.0820312 2.5625 -0.1875 C 2.019531 -0.457031 1.601562 -0.851562 1.3125 -1.375 C 1.019531 -1.90625 0.875 -2.535156 0.875 -3.265625 C 0.875 -3.941406 1.019531 -4.507812 1.3125 -4.96875 C 1.601562 -5.4375 2.050781 -5.816406 2.65625 -6.109375 C 3.269531 -6.410156 4.070312 -6.640625 5.0625 -6.796875 C 5.75 -6.910156 6.269531 -7.03125 6.625 -7.15625 C 6.976562 -7.289062 7.21875 -7.441406 7.34375 -7.609375 C 7.46875 -7.773438 7.53125 -7.984375 7.53125 -8.234375 C 7.53125 -8.609375 7.398438 -8.890625 7.140625 -9.078125 C 6.890625 -9.273438 6.46875 -9.375 5.875 -9.375 C 5.226562 -9.375 4.617188 -9.226562 4.046875 -8.9375 C 3.472656 -8.65625 2.972656 -8.285156 2.546875 -7.828125 L 2.34375 -7.828125 L 1.140625 -9.640625 C 1.722656 -10.285156 2.429688 -10.789062 3.265625 -11.15625 C 4.109375 -11.519531 5.023438 -11.703125 6.015625 -11.703125 C 7.535156 -11.703125 8.632812 -11.378906 9.3125 -10.734375 C 9.988281 -10.085938 10.328125 -9.171875 10.328125 -7.984375 L 10.328125 -3 C 10.328125 -2.488281 10.554688 -2.234375 11.015625 -2.234375 C 11.179688 -2.234375 11.347656 -2.265625 11.515625 -2.328125 L 11.671875 -2.28125 L 11.875 -0.265625 C 11.71875 -0.160156 11.492188 -0.078125 11.203125 -0.015625 C 10.921875 0.046875 10.609375 0.078125 10.265625 0.078125 C 9.578125 0.078125 9.039062 -0.0507812 8.65625 -0.3125 C 8.269531 -0.570312 8 -0.984375 7.84375 -1.546875 L 7.625 -1.578125 C 7.0625 -0.378906 6.007812 0.21875 4.46875 0.21875 Z M 5.390625 -1.9375 C 6.054688 -1.9375 6.585938 -2.160156 6.984375 -2.609375 C 7.390625 -3.054688 7.59375 -3.675781 7.59375 -4.46875 L 7.59375 -5.640625 L 7.390625 -5.6875 C 7.210938 -5.539062 6.984375 -5.421875 6.703125 -5.328125 C 6.421875 -5.234375 6.019531 -5.144531 5.5 -5.0625 C 4.875 -4.957031 4.421875 -4.773438 4.140625 -4.515625 C 3.867188 -4.265625 3.734375 -3.90625 3.734375 -3.4375 C 3.734375 -2.945312 3.878906 -2.570312 4.171875 -2.3125 C 4.460938 -2.0625 4.867188 -1.9375 5.390625 -1.9375 Z M 5.390625 -1.9375 "/></g></g></g><g fill="#ffffff" fill-opacity="1"><g transform="translate(154.48636, 286.030628)"><g><path d="M 2.546875 4.875 C 2.046875 4.875 1.597656 4.832031 1.203125 4.75 C 0.804688 4.675781 0.484375 4.578125 0.234375 4.453125 L 0.6875 2.125 L 0.875 2.0625 C 1.050781 2.15625 1.265625 2.226562 1.515625 2.28125 C 1.773438 2.332031 2.039062 2.359375 2.3125 2.359375 C 2.769531 2.359375 3.15625 2.296875 3.46875 2.171875 C 3.78125 2.054688 4.039062 1.859375 4.25 1.578125 C 4.46875 1.296875 4.660156 0.90625 4.828125 0.40625 L 0.25 -11.484375 L 3.265625 -11.484375 L 6.125 -3.5 L 6.375 -3.5 L 9.140625 -11.484375 L 12.078125 -11.484375 L 7.46875 0.71875 C 7.101562 1.707031 6.695312 2.5 6.25 3.09375 C 5.8125 3.695312 5.289062 4.144531 4.6875 4.4375 C 4.09375 4.726562 3.378906 4.875 2.546875 4.875 Z M 2.546875 4.875 "/></g></g></g><g fill="#ffffff" fill-opacity="1"><g transform="translate(166.804264, 286.030628)"><g><path d="M 6.75 0.21875 C 5.6875 0.21875 4.742188 0.0859375 3.921875 -0.171875 C 3.097656 -0.429688 2.410156 -0.769531 1.859375 -1.1875 C 1.316406 -1.613281 0.898438 -2.082031 0.609375 -2.59375 L 2.265625 -4.609375 L 2.53125 -4.609375 C 2.988281 -3.929688 3.566406 -3.390625 4.265625 -2.984375 C 4.972656 -2.585938 5.800781 -2.390625 6.75 -2.390625 C 7.550781 -2.390625 8.15625 -2.554688 8.5625 -2.890625 C 8.96875 -3.234375 9.171875 -3.703125 9.171875 -4.296875 C 9.171875 -4.660156 9.101562 -4.960938 8.96875 -5.203125 C 8.84375 -5.441406 8.628906 -5.648438 8.328125 -5.828125 C 8.023438 -6.003906 7.613281 -6.15625 7.09375 -6.28125 L 5.125 -6.71875 C 3.757812 -7.03125 2.742188 -7.546875 2.078125 -8.265625 C 1.410156 -8.992188 1.078125 -9.941406 1.078125 -11.109375 C 1.078125 -11.960938 1.289062 -12.710938 1.71875 -13.359375 C 2.144531 -14.015625 2.769531 -14.523438 3.59375 -14.890625 C 4.414062 -15.253906 5.398438 -15.4375 6.546875 -15.4375 C 7.710938 -15.4375 8.710938 -15.28125 9.546875 -14.96875 C 10.390625 -14.65625 11.097656 -14.179688 11.671875 -13.546875 L 10.1875 -11.515625 L 9.921875 -11.515625 C 9.492188 -11.960938 9.003906 -12.296875 8.453125 -12.515625 C 7.898438 -12.742188 7.265625 -12.859375 6.546875 -12.859375 C 5.722656 -12.859375 5.09375 -12.710938 4.65625 -12.421875 C 4.226562 -12.128906 4.015625 -11.726562 4.015625 -11.21875 C 4.015625 -10.738281 4.164062 -10.351562 4.46875 -10.0625 C 4.769531 -9.78125 5.289062 -9.5625 6.03125 -9.40625 L 8.03125 -8.984375 C 9.507812 -8.671875 10.582031 -8.140625 11.25 -7.390625 C 11.914062 -6.648438 12.25 -5.679688 12.25 -4.484375 C 12.25 -3.535156 12.039062 -2.707031 11.625 -2 C 11.21875 -1.300781 10.601562 -0.753906 9.78125 -0.359375 C 8.957031 0.0234375 7.945312 0.21875 6.75 0.21875 Z M 6.75 0.21875 "/></g></g></g><g fill="#ffffff" fill-opacity="1"><g transform="translate(179.87123, 286.030628)"><g><path d="M 2.546875 4.875 C 2.046875 4.875 1.597656 4.832031 1.203125 4.75 C 0.804688 4.675781 0.484375 4.578125 0.234375 4.453125 L 0.6875 2.125 L 0.875 2.0625 C 1.050781 2.15625 1.265625 2.226562 1.515625 2.28125 C 1.773438 2.332031 2.039062 2.359375 2.3125 2.359375 C 2.769531 2.359375 3.15625 2.296875 3.46875 2.171875 C 3.78125 2.054688 4.039062 1.859375 4.25 1.578125 C 4.46875 1.296875 4.660156 0.90625 4.828125 0.40625 L 0.25 -11.484375 L 3.265625 -11.484375 L 6.125 -3.5 L 6.375 -3.5 L 9.140625 -11.484375 L 12.078125 -11.484375 L 7.46875 0.71875 C 7.101562 1.707031 6.695312 2.5 6.25 3.09375 C 5.8125 3.695312 5.289062 4.144531 4.6875 4.4375 C 4.09375 4.726562 3.378906 4.875 2.546875 4.875 Z M 2.546875 4.875 "/></g></g></g><g fill="#ffffff" fill-opacity="1"><g transform="translate(192.189135, 286.030628)"><g><path d="M 5.375 0.21875 C 4.582031 0.21875 3.859375 0.128906 3.203125 -0.046875 C 2.554688 -0.234375 2.003906 -0.488281 1.546875 -0.8125 C 1.085938 -1.132812 0.742188 -1.503906 0.515625 -1.921875 L 2.125 -3.65625 L 2.34375 -3.65625 C 2.71875 -3.132812 3.164062 -2.742188 3.6875 -2.484375 C 4.207031 -2.234375 4.773438 -2.109375 5.390625 -2.109375 C 5.953125 -2.109375 6.375 -2.207031 6.65625 -2.40625 C 6.945312 -2.613281 7.09375 -2.90625 7.09375 -3.28125 C 7.09375 -3.570312 6.988281 -3.816406 6.78125 -4.015625 C 6.570312 -4.210938 6.238281 -4.363281 5.78125 -4.46875 L 4.265625 -4.84375 C 3.128906 -5.113281 2.296875 -5.523438 1.765625 -6.078125 C 1.242188 -6.640625 0.984375 -7.347656 0.984375 -8.203125 C 0.984375 -8.921875 1.164062 -9.539062 1.53125 -10.0625 C 1.894531 -10.59375 2.40625 -11 3.0625 -11.28125 C 3.726562 -11.5625 4.503906 -11.703125 5.390625 -11.703125 C 6.421875 -11.703125 7.273438 -11.550781 7.953125 -11.25 C 8.640625 -10.945312 9.171875 -10.546875 9.546875 -10.046875 L 8.015625 -8.390625 L 7.8125 -8.390625 C 7.488281 -8.742188 7.125 -9.003906 6.71875 -9.171875 C 6.320312 -9.335938 5.878906 -9.421875 5.390625 -9.421875 C 4.253906 -9.421875 3.6875 -9.066406 3.6875 -8.359375 C 3.6875 -8.066406 3.789062 -7.828125 4 -7.640625 C 4.207031 -7.453125 4.582031 -7.300781 5.125 -7.1875 L 6.53125 -6.875 C 7.695312 -6.625 8.546875 -6.222656 9.078125 -5.671875 C 9.617188 -5.117188 9.890625 -4.375 9.890625 -3.4375 C 9.890625 -2.71875 9.707031 -2.078125 9.34375 -1.515625 C 8.988281 -0.960938 8.472656 -0.535156 7.796875 -0.234375 C 7.117188 0.0664062 6.3125 0.21875 5.375 0.21875 Z M 5.375 0.21875 "/></g></g></g><g fill="#ffffff" fill-opacity="1"><g transform="translate(202.769635, 286.030628)"><g><path d="M 7.921875 -2.734375 L 8.671875 -0.609375 C 8.359375 -0.347656 7.960938 -0.144531 7.484375 0 C 7.015625 0.144531 6.484375 0.21875 5.890625 0.21875 C 4.648438 0.21875 3.707031 -0.117188 3.0625 -0.796875 C 2.414062 -1.472656 2.09375 -2.457031 2.09375 -3.75 L 2.09375 -9.203125 L 0.34375 -9.203125 L 0.34375 -11.484375 L 2.09375 -11.484375 L 2.09375 -13.71875 L 4.96875 -14.1875 L 4.96875 -11.484375 L 8.234375 -11.484375 L 8.234375 -9.203125 L 4.96875 -9.203125 L 4.96875 -3.953125 C 4.96875 -3.378906 5.085938 -2.960938 5.328125 -2.703125 C 5.566406 -2.453125 5.910156 -2.328125 6.359375 -2.328125 C 6.867188 -2.328125 7.316406 -2.460938 7.703125 -2.734375 Z M 7.921875 -2.734375 "/></g></g></g><g fill="#ffffff" fill-opacity="1"><g transform="translate(211.685554, 286.030628)"><g><path d="M 11.34375 -5.09375 L 3.96875 -5.09375 C 4.050781 -4.09375 4.332031 -3.363281 4.8125 -2.90625 C 5.300781 -2.457031 5.96875 -2.234375 6.8125 -2.234375 C 7.46875 -2.234375 8 -2.351562 8.40625 -2.59375 C 8.8125 -2.84375 9.140625 -3.21875 9.390625 -3.71875 L 9.609375 -3.71875 L 11.53125 -2.484375 C 11.15625 -1.679688 10.585938 -1.03125 9.828125 -0.53125 C 9.078125 -0.03125 8.070312 0.21875 6.8125 0.21875 C 5.625 0.21875 4.597656 -0.00390625 3.734375 -0.453125 C 2.867188 -0.910156 2.203125 -1.582031 1.734375 -2.46875 C 1.265625 -3.363281 1.03125 -4.453125 1.03125 -5.734375 C 1.03125 -7.035156 1.273438 -8.132812 1.765625 -9.03125 C 2.265625 -9.925781 2.929688 -10.59375 3.765625 -11.03125 C 4.609375 -11.476562 5.550781 -11.703125 6.59375 -11.703125 C 8.21875 -11.703125 9.460938 -11.269531 10.328125 -10.40625 C 11.191406 -9.539062 11.625 -8.28125 11.625 -6.625 C 11.625 -6.019531 11.601562 -5.550781 11.5625 -5.21875 Z M 8.859375 -6.953125 C 8.835938 -7.828125 8.632812 -8.460938 8.25 -8.859375 C 7.875 -9.253906 7.320312 -9.453125 6.59375 -9.453125 C 5.132812 -9.453125 4.28125 -8.617188 4.03125 -6.953125 Z M 8.859375 -6.953125 "/></g></g></g><g fill="#ffffff" fill-opacity="1"><g transform="translate(224.159522, 286.030628)"><g><path d="M 1.65625 0 L 1.65625 -11.484375 L 4.421875 -11.484375 L 4.421875 -9.9375 L 4.640625 -9.890625 C 5.015625 -10.515625 5.453125 -10.972656 5.953125 -11.265625 C 6.460938 -11.554688 7.109375 -11.703125 7.890625 -11.703125 C 8.753906 -11.703125 9.445312 -11.53125 9.96875 -11.1875 C 10.5 -10.84375 10.890625 -10.335938 11.140625 -9.671875 L 11.359375 -9.671875 C 11.710938 -10.359375 12.164062 -10.867188 12.71875 -11.203125 C 13.28125 -11.535156 13.976562 -11.703125 14.8125 -11.703125 C 17.1875 -11.703125 18.375 -10.375 18.375 -7.71875 L 18.375 0 L 15.5 0 L 15.5 -7.359375 C 15.5 -8.023438 15.363281 -8.507812 15.09375 -8.8125 C 14.832031 -9.113281 14.410156 -9.265625 13.828125 -9.265625 C 12.242188 -9.265625 11.453125 -8.207031 11.453125 -6.09375 L 11.453125 0 L 8.578125 0 L 8.578125 -7.359375 C 8.578125 -8.023438 8.441406 -8.507812 8.171875 -8.8125 C 7.910156 -9.113281 7.488281 -9.265625 6.90625 -9.265625 C 6.15625 -9.265625 5.570312 -9.015625 5.15625 -8.515625 C 4.738281 -8.023438 4.53125 -7.238281 4.53125 -6.15625 L 4.53125 0 Z M 1.65625 0 "/></g></g></g><g fill="#ffffff" fill-opacity="1"><g transform="translate(244.009659, 286.030628)"><g><path d="M 5.375 0.21875 C 4.582031 0.21875 3.859375 0.128906 3.203125 -0.046875 C 2.554688 -0.234375 2.003906 -0.488281 1.546875 -0.8125 C 1.085938 -1.132812 0.742188 -1.503906 0.515625 -1.921875 L 2.125 -3.65625 L 2.34375 -3.65625 C 2.71875 -3.132812 3.164062 -2.742188 3.6875 -2.484375 C 4.207031 -2.234375 4.773438 -2.109375 5.390625 -2.109375 C 5.953125 -2.109375 6.375 -2.207031 6.65625 -2.40625 C 6.945312 -2.613281 7.09375 -2.90625 7.09375 -3.28125 C 7.09375 -3.570312 6.988281 -3.816406 6.78125 -4.015625 C 6.570312 -4.210938 6.238281 -4.363281 5.78125 -4.46875 L 4.265625 -4.84375 C 3.128906 -5.113281 2.296875 -5.523438 1.765625 -6.078125 C 1.242188 -6.640625 0.984375 -7.347656 0.984375 -8.203125 C 0.984375 -8.921875 1.164062 -9.539062 1.53125 -10.0625 C 1.894531 -10.59375 2.40625 -11 3.0625 -11.28125 C 3.726562 -11.5625 4.503906 -11.703125 5.390625 -11.703125 C 6.421875 -11.703125 7.273438 -11.550781 7.953125 -11.25 C 8.640625 -10.945312 9.171875 -10.546875 9.546875 -10.046875 L 8.015625 -8.390625 L 7.8125 -8.390625 C 7.488281 -8.742188 7.125 -9.003906 6.71875 -9.171875 C 6.320312 -9.335938 5.878906 -9.421875 5.390625 -9.421875 C 4.253906 -9.421875 3.6875 -9.066406 3.6875 -8.359375 C 3.6875 -8.066406 3.789062 -7.828125 4 -7.640625 C 4.207031 -7.453125 4.582031 -7.300781 5.125 -7.1875 L 6.53125 -6.875 C 7.695312 -6.625 8.546875 -6.222656 9.078125 -5.671875 C 9.617188 -5.117188 9.890625 -4.375 9.890625 -3.4375 C 9.890625 -2.71875 9.707031 -2.078125 9.34375 -1.515625 C 8.988281 -0.960938 8.472656 -0.535156 7.796875 -0.234375 C 7.117188 0.0664062 6.3125 0.21875 5.375 0.21875 Z M 5.375 0.21875 "/></g></g></g></svg>