<svg xmlns="http://www.w3.org/2000/svg" xmlns:xlink="http://www.w3.org/1999/xlink" width="1000" zoomAndPan="magnify" viewBox="0 0 750 374.999991" height="500" preserveAspectRatio="xMidYMid meet" version="1.0"><defs><g/><clipPath id="cd40b4a498"><path d="M 32.246094 53.066406 L 301.109375 53.066406 L 301.109375 321.933594 L 32.246094 321.933594 Z M 32.246094 53.066406 " clip-rule="nonzero"/></clipPath><clipPath id="4eb645d245"><path d="M 166.679688 53.066406 C 92.433594 53.066406 32.246094 113.253906 32.246094 187.5 C 32.246094 261.746094 92.433594 321.933594 166.679688 321.933594 C 240.921875 321.933594 301.109375 261.746094 301.109375 187.5 C 301.109375 113.253906 240.921875 53.066406 166.679688 53.066406 Z M 166.679688 53.066406 " clip-rule="nonzero"/></clipPath><clipPath id="c3043e537e"><path d="M 79 139 L 254.378906 139 L 254.378906 235 L 79 235 Z M 79 139 " clip-rule="nonzero"/></clipPath></defs><g clip-path="url(#cd40b4a498)"><g clip-path="url(#4eb645d245)"><path fill="#5271ff" d="M 32.246094 53.066406 L 301.109375 53.066406 L 301.109375 321.933594 L 32.246094 321.933594 Z M 32.246094 53.066406 " fill-opacity="1" fill-rule="nonzero"/></g></g><path fill="#ffffff" d="M 193.863281 201.230469 C 195.089844 199.117188 195.199219 196.410156 193.863281 194.113281 L 187.675781 183.398438 L 181.484375 194.113281 C 180.148438 196.375 180.261719 199.117188 181.484375 201.230469 C 182.078125 202.269531 182.96875 203.195312 184.117188 203.824219 C 185.226562 204.453125 186.453125 204.789062 187.675781 204.75 C 188.898438 204.75 190.121094 204.453125 191.234375 203.824219 C 192.382812 203.195312 193.273438 202.304688 193.863281 201.230469 Z M 139.484375 173.726562 C 138.261719 175.839844 138.152344 178.542969 139.484375 180.84375 L 145.675781 191.554688 L 151.867188 180.84375 C 153.164062 178.582031 153.089844 175.839844 151.867188 173.726562 C 151.273438 172.6875 150.382812 171.761719 149.234375 171.128906 C 148.121094 170.5 146.898438 170.167969 145.675781 170.203125 C 144.453125 170.203125 143.230469 170.5 142.117188 171.128906 C 140.96875 171.761719 140.078125 172.648438 139.484375 173.726562 Z M 139.484375 173.726562 " fill-opacity="1" fill-rule="evenodd"/><g clip-path="url(#c3043e537e)"><path fill="#ffffff" d="M 184.003906 189.851562 L 187.710938 183.4375 L 182.707031 174.761719 L 182.707031 174.726562 L 171.105469 154.671875 C 168.511719 150.1875 164.878906 146.441406 160.390625 143.847656 L 159.984375 143.625 C 155.609375 141.179688 150.679688 139.957031 145.640625 139.957031 C 140.597656 139.957031 135.667969 141.179688 131.257812 143.625 L 130.921875 143.8125 C 126.363281 146.441406 122.769531 150.1875 120.171875 154.671875 L 108.570312 174.726562 L 108.570312 174.761719 L 92.1875 203.15625 C 90.222656 206.566406 91.40625 210.90625 94.816406 212.871094 C 98.230469 214.832031 102.566406 213.648438 104.53125 210.238281 L 121.101562 181.546875 L 132.480469 161.824219 C 133.8125 159.492188 135.667969 157.527344 138.003906 156.191406 L 138.261719 156.042969 C 140.488281 154.820312 143.042969 154.265625 145.601562 154.265625 C 148.195312 154.265625 150.71875 154.820312 152.980469 156.042969 L 153.199219 156.15625 C 155.574219 157.527344 157.425781 159.492188 158.761719 161.824219 L 170.140625 181.546875 L 181.335938 200.894531 C 180.296875 198.820312 180.261719 196.300781 181.519531 194.148438 Z M 149.347656 185.105469 L 151.828125 180.804688 C 153.089844 178.65625 153.054688 176.097656 152.015625 174.058594 L 163.210938 193.410156 L 174.589844 213.128906 C 175.925781 215.464844 177.777344 217.429688 180.148438 218.800781 L 180.371094 218.910156 C 182.632812 220.171875 185.152344 220.691406 187.75 220.691406 C 190.34375 220.691406 192.863281 220.132812 195.089844 218.910156 L 195.347656 218.761719 C 197.683594 217.429688 199.535156 215.464844 200.871094 213.128906 L 212.25 193.410156 L 228.820312 164.71875 C 230.785156 161.308594 235.121094 160.121094 238.53125 162.085938 C 241.941406 164.050781 243.128906 168.386719 241.164062 171.796875 L 224.78125 200.191406 L 224.78125 200.230469 L 213.214844 220.28125 C 210.621094 224.769531 206.988281 228.511719 202.464844 231.144531 L 202.132812 231.328125 C 197.71875 233.8125 192.789062 235 187.75 235 C 182.707031 235 177.777344 233.777344 173.402344 231.328125 L 172.996094 231.105469 C 168.511719 228.511719 164.878906 224.769531 162.28125 220.28125 L 150.71875 200.230469 L 150.71875 200.191406 L 145.714844 191.519531 Z M 240.164062 147.074219 C 240.164062 150.964844 243.3125 154.117188 247.207031 154.117188 C 251.097656 154.117188 254.25 150.964844 254.25 147.074219 C 254.25 143.179688 251.097656 140.03125 247.207031 140.03125 C 243.3125 139.992188 240.164062 143.179688 240.164062 147.074219 Z M 93.1875 227.882812 C 93.1875 223.988281 90.035156 220.839844 86.144531 220.839844 C 82.253906 220.839844 79.101562 223.988281 79.101562 227.882812 C 79.101562 231.773438 82.253906 234.925781 86.144531 234.925781 C 90.035156 234.925781 93.1875 231.773438 93.1875 227.882812 Z M 93.1875 227.882812 " fill-opacity="1" fill-rule="evenodd"/></g><path fill="#ffffff" d="M 145.640625 191.519531 L 139.449219 180.804688 C 138.113281 178.542969 138.226562 175.800781 139.449219 173.6875 L 119.359375 208.457031 L 110.203125 224.398438 C 108.238281 227.808594 109.386719 232.183594 112.796875 234.148438 C 116.207031 236.109375 120.582031 234.960938 122.546875 231.550781 L 131.664062 215.796875 Z M 187.710938 183.4375 L 193.902344 194.148438 C 195.238281 196.410156 195.125 199.152344 193.902344 201.265625 L 213.992188 166.496094 L 223.1875 150.59375 C 225.152344 147.183594 224 142.808594 220.589844 140.84375 C 217.179688 138.878906 212.808594 140.03125 210.84375 143.441406 L 201.722656 159.195312 Z M 187.710938 183.4375 " fill-opacity="1" fill-rule="evenodd"/><g fill="#5271ff" fill-opacity="1"><g transform="translate(314.033015, 211.408901)"><g><path d="M 22.28125 0.71875 C 18.800781 0.71875 15.703125 0.289062 12.984375 -0.5625 C 10.265625 -1.425781 8 -2.554688 6.1875 -3.953125 C 4.375 -5.347656 2.988281 -6.882812 2.03125 -8.5625 L 7.5 -15.234375 L 8.359375 -15.234375 C 9.867188 -12.984375 11.785156 -11.191406 14.109375 -9.859375 C 16.441406 -8.535156 19.164062 -7.875 22.28125 -7.875 C 24.945312 -7.875 26.953125 -8.4375 28.296875 -9.5625 C 29.648438 -10.6875 30.328125 -12.234375 30.328125 -14.203125 C 30.328125 -15.398438 30.109375 -16.398438 29.671875 -17.203125 C 29.242188 -18.003906 28.523438 -18.691406 27.515625 -19.265625 C 26.503906 -19.835938 25.140625 -20.328125 23.421875 -20.734375 L 16.953125 -22.21875 C 12.441406 -23.25 9.078125 -24.960938 6.859375 -27.359375 C 4.648438 -29.753906 3.546875 -32.867188 3.546875 -36.703125 C 3.546875 -39.546875 4.253906 -42.039062 5.671875 -44.1875 C 7.097656 -46.34375 9.164062 -48.015625 11.875 -49.203125 C 14.59375 -50.398438 17.847656 -51 21.640625 -51 C 25.515625 -51 28.832031 -50.488281 31.59375 -49.46875 C 34.351562 -48.445312 36.6875 -46.882812 38.59375 -44.78125 L 33.671875 -38.03125 L 32.8125 -38.03125 C 31.382812 -39.53125 29.753906 -40.648438 27.921875 -41.390625 C 26.085938 -42.140625 23.992188 -42.515625 21.640625 -42.515625 C 18.910156 -42.515625 16.832031 -42.03125 15.40625 -41.0625 C 13.988281 -40.101562 13.28125 -38.773438 13.28125 -37.078125 C 13.28125 -35.492188 13.773438 -34.226562 14.765625 -33.28125 C 15.765625 -32.34375 17.492188 -31.613281 19.953125 -31.09375 L 26.546875 -29.71875 C 31.429688 -28.6875 34.972656 -26.9375 37.171875 -24.46875 C 39.378906 -22.007812 40.484375 -18.796875 40.484375 -14.828125 C 40.484375 -11.679688 39.804688 -8.941406 38.453125 -6.609375 C 37.097656 -4.285156 35.054688 -2.484375 32.328125 -1.203125 C 29.597656 0.078125 26.25 0.71875 22.28125 0.71875 Z M 22.28125 0.71875 "/></g></g></g><g fill="#5271ff" fill-opacity="1"><g transform="translate(357.226219, 211.408901)"><g><path d="M 26.171875 -9.046875 L 28.65625 -2 C 27.625 -1.144531 26.328125 -0.476562 24.765625 0 C 23.203125 0.476562 21.4375 0.71875 19.46875 0.71875 C 15.363281 0.71875 12.242188 -0.394531 10.109375 -2.625 C 7.972656 -4.863281 6.90625 -8.113281 6.90625 -12.375 L 6.90625 -30.40625 L 1.140625 -30.40625 L 1.140625 -37.96875 L 6.90625 -37.96875 L 6.90625 -45.359375 L 16.4375 -46.90625 L 16.4375 -37.96875 L 27.203125 -37.96875 L 27.203125 -30.40625 L 16.4375 -30.40625 L 16.4375 -13.0625 C 16.4375 -11.1875 16.828125 -9.816406 17.609375 -8.953125 C 18.390625 -8.097656 19.523438 -7.671875 21.015625 -7.671875 C 22.710938 -7.671875 24.191406 -8.128906 25.453125 -9.046875 Z M 26.171875 -9.046875 "/></g></g></g><g fill="#5271ff" fill-opacity="1"><g transform="translate(386.698015, 211.408901)"><g><path d="M 14.796875 0.71875 C 12.359375 0.71875 10.242188 0.273438 8.453125 -0.609375 C 6.671875 -1.503906 5.296875 -2.816406 4.328125 -4.546875 C 3.367188 -6.285156 2.890625 -8.367188 2.890625 -10.796875 C 2.890625 -13.046875 3.367188 -14.929688 4.328125 -16.453125 C 5.296875 -17.984375 6.785156 -19.234375 8.796875 -20.203125 C 10.816406 -21.179688 13.457031 -21.929688 16.71875 -22.453125 C 18.988281 -22.828125 20.710938 -23.226562 21.890625 -23.65625 C 23.066406 -24.09375 23.863281 -24.585938 24.28125 -25.140625 C 24.695312 -25.691406 24.90625 -26.390625 24.90625 -27.234375 C 24.90625 -28.453125 24.476562 -29.378906 23.625 -30.015625 C 22.78125 -30.660156 21.367188 -30.984375 19.390625 -30.984375 C 17.285156 -30.984375 15.28125 -30.515625 13.375 -29.578125 C 11.476562 -28.640625 9.828125 -27.398438 8.421875 -25.859375 L 7.734375 -25.859375 L 3.75 -31.875 C 5.675781 -34.007812 8.023438 -35.671875 10.796875 -36.859375 C 13.578125 -38.054688 16.601562 -38.65625 19.875 -38.65625 C 24.894531 -38.65625 28.53125 -37.585938 30.78125 -35.453125 C 33.03125 -33.328125 34.15625 -30.300781 34.15625 -26.375 L 34.15625 -9.90625 C 34.15625 -8.207031 34.898438 -7.359375 36.390625 -7.359375 C 36.960938 -7.359375 37.523438 -7.460938 38.078125 -7.671875 L 38.5625 -7.53125 L 39.25 -0.890625 C 38.71875 -0.546875 37.976562 -0.265625 37.03125 -0.046875 C 36.09375 0.171875 35.066406 0.28125 33.953125 0.28125 C 31.679688 0.28125 29.90625 -0.15625 28.625 -1.03125 C 27.351562 -1.90625 26.441406 -3.269531 25.890625 -5.125 L 25.171875 -5.1875 C 23.316406 -1.25 19.859375 0.71875 14.796875 0.71875 Z M 17.8125 -6.390625 C 20.019531 -6.390625 21.78125 -7.128906 23.09375 -8.609375 C 24.414062 -10.085938 25.078125 -12.148438 25.078125 -14.796875 L 25.078125 -18.640625 L 24.421875 -18.78125 C 23.847656 -18.320312 23.097656 -17.9375 22.171875 -17.625 C 21.242188 -17.3125 19.90625 -17.007812 18.15625 -16.71875 C 16.09375 -16.375 14.609375 -15.78125 13.703125 -14.9375 C 12.796875 -14.101562 12.34375 -12.921875 12.34375 -11.390625 C 12.34375 -9.753906 12.820312 -8.507812 13.78125 -7.65625 C 14.75 -6.8125 16.09375 -6.390625 17.8125 -6.390625 Z M 17.8125 -6.390625 "/></g></g></g><g fill="#5271ff" fill-opacity="1"><g transform="translate(426.692996, 211.408901)"><g><path d="M 8.390625 16.09375 C 6.765625 16.09375 5.289062 15.96875 3.96875 15.71875 C 2.65625 15.46875 1.582031 15.132812 0.75 14.71875 L 2.265625 7.015625 L 2.890625 6.8125 C 3.460938 7.101562 4.171875 7.34375 5.015625 7.53125 C 5.867188 7.71875 6.742188 7.8125 7.640625 7.8125 C 9.171875 7.8125 10.445312 7.609375 11.46875 7.203125 C 12.488281 6.804688 13.351562 6.140625 14.0625 5.203125 C 14.78125 4.273438 15.410156 2.988281 15.953125 1.34375 L 0.828125 -37.9375 L 10.796875 -37.9375 L 20.21875 -11.5625 L 21.046875 -11.5625 L 30.234375 -37.9375 L 39.9375 -37.9375 L 24.6875 2.375 C 23.476562 5.625 22.144531 8.238281 20.6875 10.21875 C 19.226562 12.207031 17.503906 13.679688 15.515625 14.640625 C 13.535156 15.609375 11.160156 16.09375 8.390625 16.09375 Z M 8.390625 16.09375 "/></g></g></g><g fill="#5271ff" fill-opacity="1"><g transform="translate(467.410157, 211.408901)"><g><path d="M 22.28125 0.71875 C 18.800781 0.71875 15.703125 0.289062 12.984375 -0.5625 C 10.265625 -1.425781 8 -2.554688 6.1875 -3.953125 C 4.375 -5.347656 2.988281 -6.882812 2.03125 -8.5625 L 7.5 -15.234375 L 8.359375 -15.234375 C 9.867188 -12.984375 11.785156 -11.191406 14.109375 -9.859375 C 16.441406 -8.535156 19.164062 -7.875 22.28125 -7.875 C 24.945312 -7.875 26.953125 -8.4375 28.296875 -9.5625 C 29.648438 -10.6875 30.328125 -12.234375 30.328125 -14.203125 C 30.328125 -15.398438 30.109375 -16.398438 29.671875 -17.203125 C 29.242188 -18.003906 28.523438 -18.691406 27.515625 -19.265625 C 26.503906 -19.835938 25.140625 -20.328125 23.421875 -20.734375 L 16.953125 -22.21875 C 12.441406 -23.25 9.078125 -24.960938 6.859375 -27.359375 C 4.648438 -29.753906 3.546875 -32.867188 3.546875 -36.703125 C 3.546875 -39.546875 4.253906 -42.039062 5.671875 -44.1875 C 7.097656 -46.34375 9.164062 -48.015625 11.875 -49.203125 C 14.59375 -50.398438 17.847656 -51 21.640625 -51 C 25.515625 -51 28.832031 -50.488281 31.59375 -49.46875 C 34.351562 -48.445312 36.6875 -46.882812 38.59375 -44.78125 L 33.671875 -38.03125 L 32.8125 -38.03125 C 31.382812 -39.53125 29.753906 -40.648438 27.921875 -41.390625 C 26.085938 -42.140625 23.992188 -42.515625 21.640625 -42.515625 C 18.910156 -42.515625 16.832031 -42.03125 15.40625 -41.0625 C 13.988281 -40.101562 13.28125 -38.773438 13.28125 -37.078125 C 13.28125 -35.492188 13.773438 -34.226562 14.765625 -33.28125 C 15.765625 -32.34375 17.492188 -31.613281 19.953125 -31.09375 L 26.546875 -29.71875 C 31.429688 -28.6875 34.972656 -26.9375 37.171875 -24.46875 C 39.378906 -22.007812 40.484375 -18.796875 40.484375 -14.828125 C 40.484375 -11.679688 39.804688 -8.941406 38.453125 -6.609375 C 37.097656 -4.285156 35.054688 -2.484375 32.328125 -1.203125 C 29.597656 0.078125 26.25 0.71875 22.28125 0.71875 Z M 22.28125 0.71875 "/></g></g></g><g fill="#5271ff" fill-opacity="1"><g transform="translate(510.60336, 211.408901)"><g><path d="M 8.390625 16.09375 C 6.765625 16.09375 5.289062 15.96875 3.96875 15.71875 C 2.65625 15.46875 1.582031 15.132812 0.75 14.71875 L 2.265625 7.015625 L 2.890625 6.8125 C 3.460938 7.101562 4.171875 7.34375 5.015625 7.53125 C 5.867188 7.71875 6.742188 7.8125 7.640625 7.8125 C 9.171875 7.8125 10.445312 7.609375 11.46875 7.203125 C 12.488281 6.804688 13.351562 6.140625 14.0625 5.203125 C 14.78125 4.273438 15.410156 2.988281 15.953125 1.34375 L 0.828125 -37.9375 L 10.796875 -37.9375 L 20.21875 -11.5625 L 21.046875 -11.5625 L 30.234375 -37.9375 L 39.9375 -37.9375 L 24.6875 2.375 C 23.476562 5.625 22.144531 8.238281 20.6875 10.21875 C 19.226562 12.207031 17.503906 13.679688 15.515625 14.640625 C 13.535156 15.609375 11.160156 16.09375 8.390625 16.09375 Z M 8.390625 16.09375 "/></g></g></g><g fill="#5271ff" fill-opacity="1"><g transform="translate(551.320521, 211.408901)"><g><path d="M 26.171875 -9.046875 L 28.65625 -2 C 27.625 -1.144531 26.328125 -0.476562 24.765625 0 C 23.203125 0.476562 21.4375 0.71875 19.46875 0.71875 C 15.363281 0.71875 12.242188 -0.394531 10.109375 -2.625 C 7.972656 -4.863281 6.90625 -8.113281 6.90625 -12.375 L 6.90625 -30.40625 L 1.140625 -30.40625 L 1.140625 -37.96875 L 6.90625 -37.96875 L 6.90625 -45.359375 L 16.4375 -46.90625 L 16.4375 -37.96875 L 27.203125 -37.96875 L 27.203125 -30.40625 L 16.4375 -30.40625 L 16.4375 -13.0625 C 16.4375 -11.1875 16.828125 -9.816406 17.609375 -8.953125 C 18.390625 -8.097656 19.523438 -7.671875 21.015625 -7.671875 C 22.710938 -7.671875 24.191406 -8.128906 25.453125 -9.046875 Z M 26.171875 -9.046875 "/></g></g></g><g fill="#5271ff" fill-opacity="1"><g transform="translate(580.792305, 211.408901)"><g><path d="M 37.484375 -16.8125 L 13.109375 -16.8125 C 13.378906 -13.507812 14.316406 -11.109375 15.921875 -9.609375 C 17.523438 -8.109375 19.71875 -7.359375 22.5 -7.359375 C 24.675781 -7.359375 26.4375 -7.765625 27.78125 -8.578125 C 29.132812 -9.390625 30.226562 -10.625 31.0625 -12.28125 L 31.78125 -12.28125 L 38.109375 -8.21875 C 36.867188 -5.5625 35 -3.40625 32.5 -1.75 C 30 -0.101562 26.664062 0.71875 22.5 0.71875 C 18.570312 0.71875 15.179688 -0.0234375 12.328125 -1.515625 C 9.472656 -3.003906 7.269531 -5.222656 5.71875 -8.171875 C 4.175781 -11.117188 3.40625 -14.710938 3.40625 -18.953125 C 3.40625 -23.265625 4.21875 -26.898438 5.84375 -29.859375 C 7.46875 -32.816406 9.664062 -35.019531 12.4375 -36.46875 C 15.21875 -37.925781 18.34375 -38.65625 21.8125 -38.65625 C 27.175781 -38.65625 31.285156 -37.234375 34.140625 -34.390625 C 36.992188 -31.546875 38.421875 -27.375 38.421875 -21.875 C 38.421875 -19.875 38.351562 -18.328125 38.21875 -17.234375 Z M 29.296875 -22.96875 C 29.210938 -25.863281 28.546875 -27.96875 27.296875 -29.28125 C 26.046875 -30.601562 24.21875 -31.265625 21.8125 -31.265625 C 16.988281 -31.265625 14.15625 -28.5 13.3125 -22.96875 Z M 29.296875 -22.96875 "/></g></g></g><g fill="#5271ff" fill-opacity="1"><g transform="translate(622.02532, 211.408901)"><g><path d="M 5.46875 0 L 5.46875 -37.9375 L 14.609375 -37.9375 L 14.609375 -32.84375 L 15.34375 -32.703125 C 16.582031 -34.742188 18.03125 -36.242188 19.6875 -37.203125 C 21.351562 -38.171875 23.476562 -38.65625 26.0625 -38.65625 C 28.9375 -38.65625 31.242188 -38.085938 32.984375 -36.953125 C 34.722656 -35.816406 35.992188 -34.160156 36.796875 -31.984375 L 37.515625 -31.984375 C 38.691406 -34.253906 40.203125 -35.929688 42.046875 -37.015625 C 43.890625 -38.109375 46.1875 -38.65625 48.9375 -38.65625 C 56.800781 -38.65625 60.734375 -34.273438 60.734375 -25.515625 L 60.734375 0 L 51.21875 0 L 51.21875 -24.3125 C 51.21875 -26.539062 50.78125 -28.144531 49.90625 -29.125 C 49.03125 -30.113281 47.628906 -30.609375 45.703125 -30.609375 C 40.472656 -30.609375 37.859375 -27.113281 37.859375 -20.125 L 37.859375 0 L 28.34375 0 L 28.34375 -24.3125 C 28.34375 -26.539062 27.898438 -28.144531 27.015625 -29.125 C 26.128906 -30.113281 24.722656 -30.609375 22.796875 -30.609375 C 20.347656 -30.609375 18.4375 -29.785156 17.0625 -28.140625 C 15.6875 -26.503906 15 -23.898438 15 -20.328125 L 15 0 Z M 5.46875 0 "/></g></g></g><g fill="#5271ff" fill-opacity="1"><g transform="translate(687.640473, 211.408901)"><g><path d="M 17.75 0.71875 C 15.15625 0.71875 12.78125 0.414062 10.625 -0.1875 C 8.46875 -0.789062 6.625 -1.625 5.09375 -2.6875 C 3.570312 -3.757812 2.445312 -4.984375 1.71875 -6.359375 L 7.015625 -12.078125 L 7.734375 -12.078125 C 8.992188 -10.378906 10.484375 -9.101562 12.203125 -8.25 C 13.929688 -7.40625 15.800781 -6.984375 17.8125 -6.984375 C 19.675781 -6.984375 21.078125 -7.316406 22.015625 -7.984375 C 22.953125 -8.648438 23.421875 -9.597656 23.421875 -10.828125 C 23.421875 -11.796875 23.082031 -12.601562 22.40625 -13.25 C 21.726562 -13.90625 20.632812 -14.421875 19.125 -14.796875 L 14.09375 -16 C 10.332031 -16.882812 7.585938 -18.25 5.859375 -20.09375 C 4.128906 -21.945312 3.265625 -24.296875 3.265625 -27.140625 C 3.265625 -29.492188 3.863281 -31.539062 5.0625 -33.28125 C 6.269531 -35.03125 7.96875 -36.363281 10.15625 -37.28125 C 12.351562 -38.195312 14.90625 -38.65625 17.8125 -38.65625 C 21.226562 -38.65625 24.0625 -38.160156 26.3125 -37.171875 C 28.5625 -36.191406 30.316406 -34.875 31.578125 -33.21875 L 26.484375 -27.71875 L 25.796875 -27.71875 C 24.742188 -28.914062 23.554688 -29.785156 22.234375 -30.328125 C 20.910156 -30.878906 19.4375 -31.15625 17.8125 -31.15625 C 14.050781 -31.15625 12.171875 -29.988281 12.171875 -27.65625 C 12.171875 -26.664062 12.519531 -25.859375 13.21875 -25.234375 C 13.914062 -24.617188 15.148438 -24.117188 16.921875 -23.734375 L 21.59375 -22.703125 C 25.445312 -21.878906 28.257812 -20.554688 30.03125 -18.734375 C 31.8125 -16.910156 32.703125 -14.460938 32.703125 -11.390625 C 32.703125 -8.972656 32.101562 -6.847656 30.90625 -5.015625 C 29.71875 -3.179688 28 -1.765625 25.75 -0.765625 C 23.507812 0.222656 20.84375 0.71875 17.75 0.71875 Z M 17.75 0.71875 "/></g></g></g></svg>